<svg width="311" height="189" viewBox="0 0 311 189" fill="none" xmlns="http://www.w3.org/2000/svg">
<path d="M0.509766 185.29C0.880774 169.657 2.92132 154.306 8.30094 139.703C13.9588 124.352 16.8341 108.532 20.2659 92.7123C26.6658 63.8813 37.6106 37.1097 58.2015 15.3929C75.3607 -2.86052 96.1371 -14.655 120.902 -18.3057C138.989 -21.0203 156.982 -19.9906 174.513 -14.3742C176.368 -13.8125 178.223 -13.2509 180.17 -13.6253C197.33 -16.5272 213.561 -13.4381 229.329 -6.6048C248.621 1.72623 265.595 13.3335 279.786 28.9659C290.638 40.9476 299.264 54.6142 304.273 69.9658C310.023 87.5639 312.528 105.536 309.003 124.071C308.168 128.47 308.539 133.244 307.241 137.269C305.664 142.23 305.015 147.379 303.438 152.246C300.655 160.577 299.728 169.283 297.873 177.708C295.461 188.379 291.473 198.488 286.743 208.317C280.157 221.89 271.902 234.527 261.236 245.105C251.775 254.465 241.943 263.639 230.164 270.472C221.723 275.433 213.654 281.05 204.935 285.449C176.646 299.771 146.872 307.26 115.059 305.294C90.4792 303.796 67.9405 296.214 47.9988 281.424C20.1732 260.831 4.86911 232.936 1.43729 198.301C0.973526 193.995 0.788022 189.596 0.509766 185.29ZM45.2163 39.7307C43.9177 39.7307 43.454 40.854 42.9902 41.6964C38.2598 49.8403 33.9933 58.1713 31.1179 67.1576C30.1904 70.2466 27.4079 72.8676 28.1499 76.6119C29.9122 75.6758 30.7469 74.3653 30.8397 72.5868C31.0252 69.4977 32.5092 66.8768 33.8078 64.1621C37.6106 56.0183 41.3207 47.7809 45.1235 39.6371C50.5031 32.523 55.8827 25.4088 61.2624 18.2011C57.5523 21.4773 54.0277 24.8472 51.2451 29.0595C49.0191 32.523 45.7728 35.3312 45.2163 39.7307ZM149.006 6.87461C140.565 8.27872 134.073 10.9933 128.415 15.5801C122.664 20.2604 119.232 26.6257 115.43 32.8974C110.328 41.6028 106.804 50.9635 104.114 60.4179C101.702 68.7489 100.033 77.548 99.1052 86.347C96.7864 107.221 96.4154 127.909 102.352 148.315C108.566 169.657 118.769 188.379 135.464 203.169C162.64 227.132 196.309 231.251 228.123 216.835C230.164 215.899 232.112 214.776 233.317 212.717C241.109 199.424 246.674 185.196 250.106 170.313C254.836 150.187 255.485 129.594 252.795 109C248.9 79.5137 238.419 52.9293 218.106 31.0252C207.625 19.6052 196.124 9.3084 180.17 6.21936C175.44 5.28329 170.153 3.50476 166.258 7.43626C162.084 11.8358 158.095 16.7034 155.22 22.039C143.255 44.7855 140.751 68.7489 148.078 93.4612C150.861 103.103 156.89 110.498 165.33 115.927C166.907 116.957 170.246 117.612 169.133 120.046C168.113 122.105 165.052 121.543 162.826 120.888C161.991 120.607 161.156 120.233 160.414 119.765C150.954 113.868 143.255 106.192 138.989 95.7077C129.992 73.4293 131.012 50.7763 137.968 28.217C140.287 20.8221 144.09 14.176 149.006 6.87461ZM94.4676 37.8586C93.4473 38.233 92.8908 38.4202 92.5198 38.701C80.7403 48.5298 70.4448 59.669 60.7058 71.3699C53.1929 80.3562 46.8858 90.1849 41.0424 100.294C37.0541 107.221 33.2512 114.336 32.4165 122.479C30.2832 142.418 30.6542 162.262 34.6425 182.013C40.3004 210.189 50.7814 235.931 70.8158 256.993C81.0185 267.758 93.1691 275.433 107.082 279.739C129.713 286.666 150.954 280.863 171.359 270.94C184.623 264.575 196.217 255.589 207.069 245.76C211.984 241.267 216.715 236.306 220.61 229.847C213.654 230.689 207.625 232.187 201.411 232.842C180.356 235.089 160.507 230.783 142.049 220.86C116.914 207.381 100.033 186.413 90.4792 159.454C78.4215 125.194 79.2562 90.5593 88.7169 55.7375C90.2937 49.9339 92.427 44.1302 94.4676 37.8586ZM277.653 196.803C275.612 196.71 274.499 197.459 273.665 198.488C269.305 203.918 263.74 207.662 257.989 211.406C254.65 213.559 251.311 215.712 247.972 217.771C242.5 221.141 239.532 226.851 235.636 231.719C224.135 246.322 210.871 259.052 195.196 269.162C176.46 281.237 156.611 289.1 134.073 290.036C122.015 290.598 110.606 289.474 99.1052 285.824C80.462 279.926 65.4362 268.881 52.6364 254.559C33.5295 233.123 23.6978 207.194 18.3182 179.299C17.9471 177.146 17.2979 175.087 16.7414 173.027C15.2573 178.269 15.5356 183.324 15.4428 188.379C15.0718 209.534 20.637 229.472 31.0252 247.351C41.1352 264.762 55.79 278.242 74.4331 286.853C91.2213 294.623 108.844 298.367 127.302 297.431C147.615 296.401 166.907 291.066 185.457 282.828C216.9 268.787 244.169 249.317 264.482 220.86C269.676 213.372 274.221 205.602 277.653 196.803ZM206.512 8.18511C209.202 11.9294 213.283 13.8951 216.622 16.7034C235.822 33.2718 248.9 53.8654 257.526 77.7352C266.059 101.231 267.728 125.475 265.873 150.093C264.76 165.445 260.957 180.516 255.485 194.931C255.021 196.055 253.63 197.459 255.3 198.488C256.598 199.331 257.247 197.646 258.082 196.897C266.801 189.408 273.757 180.422 279.415 170.5C284.609 161.42 289.061 152.246 288.412 140.92C285.63 90.4657 264.946 49.7467 224.877 19.3244C219.126 15.0184 213.097 11.0869 206.512 8.18511ZM296.482 103.29C296.203 74.5525 287.021 49.2786 266.337 28.9659C247.972 10.8997 227.381 -2.95413 200.947 -5.48152C248.25 17.0778 280.064 53.2101 296.482 103.29ZM47.0713 66.7831C47.6278 66.1279 48.2771 65.4727 48.7408 64.8174C60.1493 51.0572 72.8564 38.701 86.6764 27.4682C94.4676 21.1029 103.743 16.797 111.256 10.3381C119.696 3.22394 128.044 -3.51577 138.339 -7.44727C138.432 -7.44727 138.339 -7.9153 138.339 -8.57055C117.006 -6.79202 98.2704 1.44541 82.1316 15.2057C66.0855 28.9659 52.7292 45.1599 47.0713 66.7831ZM249.085 183.605C251.126 179.486 252.888 174.899 252.61 169.938C251.404 174.431 250.198 179.018 249.085 183.605ZM245.653 196.148C245.282 195.961 245.004 195.774 244.633 195.493C243.149 198.863 241.665 202.139 240.181 205.509C242.407 202.607 244.819 199.705 245.653 196.148Z" fill="#FCE5E7" fill-opacity="0.6"/>
</svg>
