<svg width="324" height="190" viewBox="0 0 324 190" fill="none" xmlns="http://www.w3.org/2000/svg">
<path d="M320.007 144.15C316.17 159.138 310.782 173.353 302.336 185.838C293.454 198.964 287.156 213.379 280.32 227.627C267.722 253.549 251.192 276.114 226.469 290.894C205.832 303.36 183.139 308.499 158.405 304.572C140.331 301.75 123.179 295.34 107.496 284.638C105.829 283.537 104.163 282.436 102.198 282.212C84.9776 279.85 69.9865 271.981 56.2768 260.634C39.4959 246.781 25.6839 230.46 15.4555 211.089C7.63995 196.249 2.34957 180.452 0.92825 164.116C-0.709792 145.386 0.871154 127.273 8.40059 110.431C10.1861 106.432 10.8902 101.709 13.0403 98.2123C15.6675 93.8948 17.4405 89.1172 20.0469 84.8901C24.5887 77.6804 27.4221 69.5508 31.0889 61.9715C35.7933 52.3898 41.8957 43.8252 48.6523 35.7551C58.0341 24.6267 68.8203 14.9049 81.4774 7.89823C92.6991 1.70403 104.237 -4.1977 117.136 -7.25268C126.393 -9.50436 135.438 -12.5006 144.839 -14.126C175.351 -19.4452 205.777 -17.7171 236.069 -6.24276C259.478 2.60197 279.561 16.7097 295.532 36.9978C317.826 65.2648 326.4 96.8156 322.007 131.303C321.497 135.602 320.697 139.907 320.007 144.15ZM244.428 271.293C245.683 271.684 246.381 270.739 247.016 270.065C253.398 263.622 259.373 256.859 264.15 249.044C265.734 246.34 269.005 244.646 269.122 240.806C267.211 241.179 266.113 242.194 265.628 243.884C264.761 246.812 262.744 248.897 260.886 251.128C255.4 257.85 249.983 264.69 244.497 271.412C237.718 276.664 230.938 281.917 224.138 287.26C228.45 285.212 232.605 283.018 236.23 279.786C239.151 277.111 242.912 275.375 244.428 271.293ZM136.863 271.791C145.328 272.975 152.204 272.307 158.69 269.579C165.286 266.789 170.018 261.674 175.087 256.761C181.952 249.887 187.44 241.906 192.142 233.584C196.325 226.262 199.896 218.266 202.751 210.046C209.636 190.58 214.599 170.71 213.406 149.212C212.154 126.726 206.465 105.572 193.63 86.261C172.713 54.9343 141.108 40.822 107.17 45.1707C104.991 45.4607 102.859 45.9595 101.236 47.5858C90.7522 58.08 82.2101 70.1484 75.5828 83.4919C66.5345 101.508 61.3241 121.204 59.339 141.906C56.5394 171.56 60.7466 200.393 75.4923 227.665C83.0745 241.85 91.8922 255.258 106.614 263.043C110.975 265.371 115.686 268.681 120.324 266.056C125.335 263.062 130.271 259.561 134.235 255.273C150.855 236.902 158.607 214.509 157.03 188.434C156.488 178.283 152.31 169.325 145.365 161.541C144.072 160.072 140.992 158.434 142.609 156.418C144.053 154.736 146.884 156.199 148.889 157.502C149.632 158.025 150.355 158.638 150.968 159.313C158.794 167.857 164.522 177.588 166.31 188.999C170.042 213.227 164.015 234.801 152.274 254.498C148.389 260.943 143.236 266.218 136.863 271.791ZM196.439 258.278C197.507 258.223 198.087 258.21 198.508 258.05C212.073 252.102 224.497 244.441 236.508 236.07C245.765 229.651 254.045 222.056 261.939 214.049C267.333 208.559 272.59 202.832 275.209 195.217C281.707 176.6 285.765 157.32 286.308 137.041C287.114 108.123 282.719 80.1032 268.055 53.7291C260.595 40.2602 250.567 29.1889 238.087 20.8421C217.768 7.3394 195.96 6.55223 174.042 9.99472C159.813 12.151 146.614 17.3414 133.945 23.5689C128.196 26.4294 122.523 29.7977 117.323 34.864C124.23 36.144 130.386 36.512 136.535 37.7495C157.372 41.9167 175.586 52.0501 191.207 67.1899C212.486 87.7756 224.125 113.11 227.353 142.026C231.375 178.748 222.861 211.951 205.972 242.739C203.158 247.87 199.805 252.834 196.439 258.278ZM54.8698 49.6123C56.82 50.3169 58.0618 49.9286 59.0973 49.1853C64.5164 45.2531 70.7252 43.3115 77.1132 41.4256C80.8177 40.351 84.5222 39.2765 88.2058 38.2923C94.2417 36.6844 98.3794 32.0622 103.226 28.5331C117.585 17.8897 133.23 9.58502 150.621 4.53794C171.406 -1.48667 192.328 -3.10743 214.307 2.77224C226.079 5.85899 236.849 10.3778 247.146 17.3658C263.841 28.6735 275.897 43.8653 285.073 61.5518C298.758 88.0083 302.484 116.013 301.472 144.577C301.351 146.768 301.52 148.953 301.599 151.109C304.199 146.493 305.056 141.526 306.27 136.672C311.337 116.349 310.399 95.4151 304.344 75.0186C298.453 55.158 287.298 37.727 271.206 23.7972C256.719 11.2395 240.53 2.31856 222.493 -2.33276C202.644 -7.45202 182.821 -8.10501 163.069 -5.7317C129.573 -1.633 98.8997 8.96618 72.9459 30.3392C66.2622 36.0093 60.143 42.146 54.8698 49.6123ZM81.6079 253.216C79.8431 248.79 76.3386 245.663 73.7383 241.945C58.8803 220.162 50.8311 196.334 47.8116 170.681C44.7982 145.418 48.5813 121.498 55.8523 98.2762C60.344 83.7827 67.3714 70.3701 75.8656 58.0929C76.5635 57.1475 78.2199 56.2099 76.8364 54.7129C75.7696 53.5082 74.7675 54.9403 73.7945 55.4124C63.7062 60.0216 54.9869 66.6079 47.3135 74.4892C40.2756 81.6963 33.9335 89.2173 32.0399 100.353C23.4986 149.926 34.4151 195.483 66.348 236.929C70.9443 242.819 75.8928 248.431 81.6079 253.216ZM15.8705 134.272C9.74355 162.114 12.9882 189.291 28.4463 215.137C42.1647 238.115 58.9707 257.694 83.9418 268.092C43.2709 232.064 20.5825 187.587 15.8705 134.272ZM248.657 244.604C247.974 245.07 247.201 245.507 246.607 246.001C232.525 255.858 217.501 263.969 201.652 270.659C192.71 274.462 182.792 275.83 174.098 279.807C164.362 284.139 154.798 288.136 143.979 288.835C143.889 288.807 143.874 289.287 143.729 289.92C164.731 294.623 184.661 292.306 203.313 283.872C221.875 275.41 238.38 263.788 248.657 244.604ZM79.5266 70.9597C76.6389 74.3239 73.9159 78.2239 73.0805 83.0998C75.2452 79.1227 77.4307 75.0551 79.5266 70.9597ZM85.6331 59.8767C85.9498 60.1692 86.1769 60.4338 86.4728 60.8167C88.6562 58.0083 90.8189 55.2904 93.0023 52.482C90.2063 54.615 87.2311 56.6921 85.6331 59.8767Z" fill="#F5F8FF"/>
</svg>
