<svg width="256" height="209" viewBox="0 0 256 209" fill="none" xmlns="http://www.w3.org/2000/svg">
<path d="M46.6545 6.13506C46.3609 5.01588 45.8064 4.23599 44.8823 3.76749C44.3253 3.45096 43.358 3.37744 43.0745 2.89887C42.6011 2.25569 41.8642 2.41516 41.4845 2.08598C40.8743 1.52381 40.3552 1.73899 39.7678 1.99467C39.317 2.16934 38.7322 1.96168 38.8867 1.13118C38.5043 1.26534 38.122 1.39953 37.7118 1.64257C37.7675 1.42483 37.6865 1.28806 37.7549 1.24756C38.712 0.680461 39.7097 0.181751 40.8363 0.992089C40.9857 1.08831 41.0667 1.22504 41.1351 1.18454C43.8469 1.24046 44.1583 1.61017 46.9307 3.01566C47.7055 3.38792 48.5512 3.25633 49.174 3.99572C50.0677 5.03645 51.6325 5.49487 52.3337 6.83436C52.4148 6.9711 52.7009 6.9863 52.8502 7.08253C53.6503 7.80927 54.8479 8.11577 55.2504 9.26279C56.3113 9.65029 56.7695 10.5795 57.5291 11.2379C58.5595 12.1977 59.1924 13.5776 60.6204 14.1171C60.8382 14.1728 60.904 14.5956 61.0939 14.7603C61.5268 15.3351 61.7268 16.1403 62.5699 16.472C63.1953 16.7481 63.1623 17.7836 64.1143 18.1433C64.6992 18.3509 64.8308 19.1966 65.4004 19.6904C66.322 20.6223 67.2157 21.663 68.274 22.5138C68.9121 22.9671 68.1879 23.3038 68.0081 23.7798C68.4714 23.7824 68.9753 23.8533 69.6564 23.9116C69.7779 24.1167 69.9931 24.6358 70.264 24.9371C70.6033 25.198 71.135 25.16 71.5021 25.312C72.087 25.5197 72.6035 25.7678 73.1605 26.0844C73.3099 26.1806 73.2947 26.4667 73.3352 26.5351C74.2746 26.7175 75.2139 26.8999 76.1938 27.1506C76.1102 27.4772 76.1634 27.7228 76.0671 27.8722C75.9709 28.0216 75.7658 28.1431 75.5734 28.4419C75.9405 28.5938 76.0898 28.69 76.3076 28.7458C76.5253 28.8015 76.7431 28.8572 77.0292 28.8724C76.9051 29.1307 76.8216 29.4573 76.6696 29.8244C77.3228 29.9916 77.7532 31.0298 78.8066 30.3133C78.5357 30.012 78.128 29.7917 77.966 29.5182C77.8318 29.1358 77.9433 28.7003 77.9737 28.1281C78.3409 28.2801 78.8447 28.351 79.1435 28.5434C80.0524 29.2981 81.0728 29.6172 82.1894 29.7869C83.0882 29.9009 83.9314 30.2327 84.4327 30.767C84.6378 30.6455 84.8024 30.4556 85.0075 30.3341C85.453 31.0861 86.1899 30.9266 86.871 30.9849C87.0482 30.9723 87.2938 30.9191 87.5116 30.9748C88.694 31.5674 89.9473 31.6561 91.188 31.5676C92.0058 31.5449 92.6186 31.6437 93.0084 32.6135C93.0642 32.3958 93.092 32.2869 93.1199 32.178C93.3959 31.5526 94.1428 32.0338 94.4315 31.5856C95.8747 31.8389 97.3231 31.1655 98.627 31.9632C99.1613 31.4619 99.6678 31.0695 100.407 30.4467C100.336 30.9506 100.349 31.1278 100.293 31.3455C100.772 31.062 101.395 31.8014 101.754 30.8494C101.906 30.4823 102.727 29.9962 103.19 29.9987C103.98 30.0849 104.377 29.6646 104.924 29.3406C106.839 28.2064 108.943 27.2368 110.627 25.8696C113.255 23.7581 116.208 22.1936 119.039 20.424C119.791 19.9784 120.219 18.9859 121.092 18.7454C121.474 18.6112 121.91 18.7227 122.252 18.5201C122.594 18.3176 122.705 17.8821 123.006 17.6112C123.569 17.001 124.508 17.1834 125.123 16.8189C126.313 16.0214 127.719 15.743 128.921 15.1227C129.058 15.0417 129.154 14.8923 129.263 14.9202C130.993 15.1887 132.524 14.1887 134.216 13.9255C137.176 13.4649 140.067 13.0448 142.984 12.9792C146.078 12.901 149.309 12.7417 152.272 14.3118C152.679 14.5321 153.198 14.3169 153.634 14.4284C154.041 14.6487 154.325 15.1273 154.692 15.2792C155.535 15.611 156.475 15.7934 157.632 16.0315C157.844 17.0139 158.781 17.6596 159.87 17.9383C161.326 18.3688 162.068 19.7767 163.62 20.0578C164.777 20.2959 165.822 20.9695 166.8 21.6837C167.818 22.4661 168.932 23.0992 169.949 23.8817C170.628 24.4034 171.499 24.6262 172.025 25.515C172.147 25.7201 173.076 25.2619 173.276 26.0671C173.41 26.4494 173.899 26.8065 174.266 26.9584C175.069 27.2218 175.297 27.9181 175.621 28.4651C176.216 29.3134 176.469 30.3642 177.542 30.9289C177.801 31.053 178.044 31.4632 178.069 31.8177C178.135 32.2405 177.818 32.7975 178.58 32.9926C178.798 33.0483 178.699 33.661 178.902 34.0029C179.818 35.8614 180.135 37.7985 179.633 39.7582C179.494 40.3026 179.423 40.8064 179.747 41.3534C180.084 42.0776 180.324 42.9511 180.197 43.6727C180.043 44.5032 180.653 45.0654 180.499 45.8959C180.455 46.2908 180.739 46.7694 180.615 47.0277C179.979 48.6051 180.556 50.2028 180.452 51.7423C181.063 52.3044 179.916 52.7069 180.242 52.7905C180.936 53.026 180.607 53.4058 180.523 53.7324C180.412 54.1679 180.123 54.6161 179.875 55.1326C180.174 55.325 180.513 55.5859 181.179 55.9303C180.999 56.4063 180.574 56.9354 180.571 57.3988C180.662 58.1761 179.758 58.9888 180.708 59.8118C180.857 59.908 180.581 60.5334 180.469 60.9689C180.414 61.1867 180.181 61.417 180.221 61.4854C181.239 62.2679 180.251 63.4072 180.846 64.2555C180.927 64.3922 181.008 64.529 180.981 64.6378C180.456 65.7797 180.927 66.8863 180.975 68.0586C181.079 69.0132 180.828 69.993 180.714 70.8919C180.223 70.9982 179.869 71.0235 179.446 71.0893C180.208 71.2843 180.752 71.4236 181.188 71.5351C181.41 73.1581 181.934 74.5102 181.081 76.0319C181.463 75.8977 181.709 75.8446 182.132 75.7788C182.061 76.2827 181.841 76.6903 181.975 77.0726C182.122 77.6322 182.691 78.126 182.456 78.8198C182.428 78.9286 182.904 79.1084 183.094 79.273C183.243 79.3693 183.377 79.7516 183.377 79.7516C182.488 80.2782 183.385 80.8556 183.314 81.3594C183.23 81.6861 183.147 82.0127 182.967 82.4887C183.623 82.1925 184.099 82.3723 184.519 82.7699C184.79 83.0712 185.278 83.4282 185.223 83.646C185.137 84.436 185.408 84.7373 186.073 85.0817C186.481 85.302 186.709 85.9983 187.033 86.5453C187.167 86.9276 186.007 87.1529 186.754 87.634C187.311 87.9506 187.478 87.2973 187.59 86.8618C188.772 87.4544 186.997 88.0442 187.825 88.6621C188.165 88.9229 188.187 89.7408 188.402 90.2599C189.466 90.184 188.967 89.1863 189.405 88.8344C189.815 88.5914 190.469 88.7585 190.466 89.2219C190.491 89.5764 190.448 89.9714 190.94 89.8651C191.048 89.8929 191.107 89.2118 191.555 89.5005C191.854 89.693 192.084 89.9259 192.314 90.1589C193.304 91.0502 194.459 91.7517 195.781 91.7999C196.748 91.8734 197.811 91.7975 198.806 91.7622C199.801 91.7268 200.865 91.6509 201.873 91.7928C202.445 91.8232 203.042 92.2082 203.559 92.4563C203.726 91.8031 204.136 91.56 204.886 91.5778C206.494 91.6413 208.104 91.2413 209.684 91.4136C210.869 91.5429 211.973 91.5354 213.145 91.4873C214.317 91.4393 215.434 91.6091 216.619 91.7383C216.728 91.7662 216.877 91.8624 216.986 91.8902C216.356 92.5409 215.793 93.1511 215.122 93.7334C215.163 93.8018 215.203 93.8701 215.244 93.9385C215.558 93.8448 215.804 93.7917 216.077 93.6297C216.282 93.5081 216.475 93.2094 216.639 93.0195C216.976 93.7437 218.207 93.0145 218.255 94.1869C218.938 93.7818 219.485 93.4578 220.374 92.9312C219.257 92.7614 218.358 92.6474 217.391 92.5739C217.67 91.4852 218.716 92.1588 219.331 91.7942C221.03 92.635 222.929 91.7869 224.739 92.1922C225.023 92.6707 225.347 93.2177 225.711 93.833C226.053 93.6305 226.395 93.4279 226.805 93.1849C226.912 93.6761 226.937 94.0306 227.043 94.5218C227.494 94.3471 227.876 94.213 228.286 93.9699C228.707 94.3675 229.059 94.8056 229.616 95.1221C229.914 95.3146 230.446 95.2766 230.785 95.5374C231.125 95.7983 231.231 96.2895 231.433 96.6313C231.474 96.6997 231.514 96.7681 231.583 96.7276C233.067 97.0492 234.178 98.1457 235.317 99.1333C235.289 99.2421 235.193 99.3915 235.246 99.6371C235.231 99.9232 235.325 100.237 235.419 100.551C235.692 100.389 235.993 100.118 236.335 99.9157C237.948 101.546 237.948 101.546 238.052 102.501C238.829 102.41 239.361 102.372 240.024 103.18C241.282 104.836 242.774 106.261 243.827 108.039C244.07 108.449 244.888 108.427 244.584 109.161C245.47 109.098 244.784 109.966 245.191 110.186C245.708 110.434 246.361 110.602 245.88 111.349C246.409 111.774 246.966 112.09 247.495 112.516C247.424 113.02 246.931 113.589 247.883 113.949C248.25 114.101 248.477 114.797 247.822 115.094C247.822 115.094 247.875 115.339 247.984 115.367C248.774 115.453 247.854 116.552 248.741 116.489C248.918 116.476 249.123 116.355 249.191 116.314C249.052 116.858 248.885 117.512 248.622 118.314C249.318 118.086 249.7 117.952 250.356 117.656C250.176 118.132 250.133 118.527 249.9 118.758C249.462 119.109 249.624 119.383 249.923 119.575C250.399 119.755 250.551 119.388 250.594 118.993C250.553 118.925 250.622 118.884 250.65 118.775C251.505 119.284 250.766 119.907 250.832 120.33C252.326 121.292 252.959 122.672 253.25 124.255C253.475 125.414 254.095 126.617 253.366 127.881C253.27 128.03 254.168 128.144 253.743 128.673C254.029 128.688 254.384 128.663 254.779 128.706C254.53 129.223 254.242 129.671 253.994 130.187C254.292 130.38 254.7 130.6 254.971 130.901C255.052 131.038 254.558 131.608 254.599 131.676C255.576 132.39 255.107 133.314 254.884 134.185C254.593 135.097 254.725 135.943 254.856 136.788C253.707 137.654 254.479 138.49 255.208 139.72C254.324 139.32 253.876 139.032 253.4 138.852C253.345 139.07 253.261 139.396 253.177 139.723C253.532 139.698 253.859 139.781 254.145 139.796C254.198 140.042 254.347 140.138 254.319 140.247C254.094 141.581 253.76 142.888 253.711 144.21C253.681 144.782 252.835 144.913 253.172 145.638C253.293 145.843 252.744 146.63 252.334 146.873C251.637 147.101 251.582 147.319 251.564 148.068C251.546 148.818 251.093 149.456 250.857 150.149C250.123 152.34 250.11 154.656 248.9 156.667C249.107 158.576 247.709 159.958 247.263 161.7C246.929 163.007 245.602 163.885 245.417 165.288C245.389 165.397 245.116 165.559 244.87 165.612C244.106 165.88 243.789 166.437 243.703 167.227C243.341 168.643 242.313 169.714 241.353 170.744C240.53 171.694 239.978 172.944 238.626 173.468C238.183 174.747 236.911 175.408 236.347 176.481C235.962 177.079 235.514 176.79 235.281 177.02C234.843 177.372 234.567 177.998 234.21 178.486C233.716 179.056 233.371 179.722 232.647 180.059C232.128 180.274 231.391 180.433 231.277 181.332C231.249 181.441 230.746 181.37 230.54 181.492C230.295 181.545 229.953 181.747 229.925 181.856C229.535 183.38 228.922 183.282 228.444 183.565C227.788 183.861 227.375 184.568 226.732 185.041C226.02 185.555 225.187 185.864 224.476 186.378C223.628 186.973 222.427 187.13 222.012 188.3C220.802 187.816 220.359 189.094 219.566 189.472C218.91 189.768 218.105 189.968 217.462 190.441C217.092 190.753 216.358 190.449 215.892 190.91C215.454 191.261 214.866 191.517 214.388 191.801C214.018 192.112 213.312 191.699 213.117 192.461C213.157 192.53 212.448 192.58 212.19 192.456C211.714 192.276 211.375 192.016 210.927 191.727C210.937 192.368 210.866 192.871 210.823 193.266C209.99 193.575 209.293 193.803 208.61 194.208C207.475 194.788 206.475 195.75 205.219 196.125C203.444 196.714 201.993 197.851 200.259 198.509C198.661 199.087 197.157 199.978 195.478 200.418C195.341 200.499 195.233 200.471 195.055 200.484C194.551 200.413 194.091 199.947 193.799 200.859C193.744 201.076 192.845 200.962 192.543 201.233C191.969 201.666 191.219 201.648 190.591 201.836C189.335 202.21 188.067 202.408 186.892 202.919C185.717 203.43 184.408 203.559 183.274 204.139C182.481 204.516 181.486 204.552 180.544 204.833C178.934 205.233 177.308 205.919 175.725 206.21C172.274 206.777 168.917 207.658 165.44 207.87C163.845 207.984 162.141 208.07 160.49 208.401C159.399 208.586 158.323 208.485 157.287 208.452C153.826 208.378 150.291 209.271 146.832 208.734C143.245 209.382 139.667 208.177 136.054 208.47C134.995 207.619 133.712 208.103 132.595 207.933C131.438 207.695 130.281 207.457 129.096 207.328C126.521 207.191 124.1 206.223 121.568 205.691C120.561 205.55 119.593 205.476 118.849 204.532C118.765 204.858 118.669 205.008 118.613 205.225C114.476 204.167 110.352 203.285 106.27 202.009C104.161 201.411 102.052 200.813 99.9707 200.107C96.7197 198.985 93.5244 197.645 90.3291 196.305C84.7411 193.889 79.5938 190.658 74.5427 187.277C70.8766 184.831 67.4712 182.046 64.0659 179.26C60.8505 176.639 57.7312 173.869 54.6525 171.167C53.5132 170.18 52.5106 169.111 51.508 168.042C50.5864 167.111 49.7332 166.138 48.8522 165.275C47.9711 164.411 47.2951 163.426 46.3457 162.603C45.6267 162.013 45.3052 161.003 44.4772 160.385C43.6493 159.767 43.219 158.729 42.4594 158.071C41.7404 157.481 41.3505 156.511 40.3985 156.151C39.6567 154.743 38.2718 153.809 37.3654 152.591C36.3502 151.345 35.1704 150.289 34.1273 149.152C33.1247 148.084 32.3146 146.716 30.9549 146.136C30.0385 144.278 28.3548 143.151 27.137 141.563C25.8382 139.839 24.2381 138.385 23.2128 136.499C21.8405 135.742 21.6583 134.187 20.6962 133.187C18.5822 131.022 17.3848 128.221 15.8177 125.732C14.2505 123.243 12.7797 120.605 11.2809 118.075C10.7138 117.118 10.3518 116.039 10.0303 115.029C9.59998 113.991 8.58218 113.208 8.77977 111.983C7.85819 111.051 7.93426 109.62 7.28615 108.526C6.88109 107.843 6.46337 106.982 6.48116 106.232C6.36734 104.637 5.55721 103.27 5.2383 101.796C4.91939 100.323 4.80557 98.7274 4.13217 97.279C4.52973 96.8587 3.66131 96.1725 4.45386 95.7953C4.52222 95.7548 4.49693 95.4003 4.41592 95.2636C3.26651 93.6354 3.48189 91.6604 3.09718 89.7639C2.64666 87.4446 2.29238 84.9758 2.01912 82.6438C1.7079 79.7801 0.796611 76.9948 1.08549 74.0526C1.28566 72.3638 0.736351 70.6572 0.609894 68.8848C0.468218 67.3985 0.749394 65.8463 0.648223 64.4284C0.653363 63.5017 1.54471 62.5117 0.55476 61.6204C0.668774 60.7215 0.782796 59.8227 0.89681 58.9238C0.970317 57.9566 0.975457 57.0299 0.980588 56.1032C0.877057 52.6546 1.49513 49.3326 2.29045 45.998C2.59692 44.8004 2.53626 43.4508 2.95161 42.2811C4.25335 38.5541 5.29685 34.703 7.0341 31.0874C7.53046 30.0544 8.13569 29.0492 8.78143 28.1124C9.71585 26.7275 10.2831 25.1906 11.3948 23.793C13.2332 21.5954 14.9628 19.3699 17.1531 17.6103C18.5635 16.4052 20.0145 15.2684 21.4249 14.0633C22.9999 12.6683 24.7496 11.724 26.5272 10.6708C27.8262 9.90118 28.8264 8.9391 29.7456 7.84028C30.1431 7.42 30.6622 7.20483 31.1003 6.85292C31.4016 6.58201 31.7029 6.3111 32.0726 5.99969C32.8804 5.33636 33.5667 4.46795 34.7516 4.59719C34.9694 4.6529 35.1923 3.78191 35.5468 3.75662C36.3519 3.55666 37.2407 3.03006 38.1497 3.78467C38.4889 4.04549 39.0054 4.29367 39.4409 4.40512C41.0057 4.86353 42.5021 5.36246 44.0668 5.82088C44.2845 5.8766 44.5023 5.93235 44.5707 5.89184C45.4063 5.11964 45.976 5.61341 46.6545 6.13506ZM154.183 178.424C155.163 178.675 155.692 179.1 156.074 178.966C157.495 178.402 158.994 178.437 160.452 178.405C161.87 178.303 163.344 177.984 164.789 177.774C166.235 177.564 167.79 177.382 169.102 176.79C171.097 175.792 173.292 175.6 175.325 175.134C177.25 174.641 179.121 173.902 181.207 173.681C181.916 173.631 182.64 173.294 183.365 172.957C184.362 172.459 185.251 171.932 186.439 171.598C187.558 171.304 188.502 170.56 189.649 170.158C190.619 169.768 191.642 169.624 192.531 169.097C193.42 168.57 194.43 168.249 195.359 167.791C197.327 166.902 199.36 166.436 201.327 165.548C201.532 165.426 201.684 165.059 201.93 165.006C202.244 164.912 202.598 164.887 202.885 164.902C203.171 164.917 203.485 164.824 203.771 164.839C203.649 164.634 203.637 164.457 203.596 164.388C203.556 164.32 203.583 164.211 203.583 164.211C204.553 163.821 205.171 162.993 205.911 162.37C205.009 162.72 204.282 163.52 203.465 163.543C202.401 163.618 201.755 164.555 201.006 164.537C199.861 164.477 199.312 165.264 198.479 165.573C197.96 165.788 197.101 165.742 196.813 166.191C196.524 166.639 196.278 166.692 195.759 166.907C194.886 167.147 193.835 167.401 193.083 167.846C191.169 168.98 189.092 169.841 186.922 170.388C185.312 170.788 183.714 171.365 182.076 171.874C180.438 172.382 178.815 172.605 177.176 173.114C174.979 173.77 172.728 174.18 170.53 174.835C169.097 175.223 167.542 175.405 166 175.764C164.567 176.151 163.134 176.539 161.688 176.749C160.242 176.959 158.837 177.237 157.363 177.556C156.517 177.688 155.507 178.009 154.183 178.424ZM159.145 188.046C159.471 188.13 159.798 188.214 160.153 188.188C162.102 188.049 163.999 187.664 165.961 187.703C166.888 187.708 167.789 187.358 168.663 187.118C169.468 186.918 170.544 187.019 171.187 186.546C171.927 185.923 173.215 187.007 173.55 185.7C175.294 185.683 176.811 184.969 178.462 184.637C179.553 184.453 180.536 184.24 181.546 183.918C182.556 183.597 183.716 183.372 184.577 182.954C185.438 182.536 186.731 182.693 187.365 181.579C187.489 181.321 188.58 181.136 188.81 181.369C189.502 182.068 189.694 181.769 189.93 181.076C190.99 181.463 191.53 180.035 192.619 180.314C193.163 180.453 193.778 180.088 194.366 179.833C194.885 179.618 194.968 179.291 194.48 178.934C193.824 179.23 193.181 179.704 192.609 179.673C191.859 179.655 191.363 180.688 190.398 180.152C189.95 179.863 189.413 180.827 188.775 180.374C188.666 180.346 188.393 180.508 188.215 180.521C185.554 181.174 182.959 182.25 180.285 182.726C179.303 182.938 178.373 183.397 177.35 183.541C176.464 183.604 175.563 183.953 174.649 184.126C173.626 184.27 172.724 184.619 171.714 184.941C167.551 186.021 163.323 186.679 159.145 188.046ZM122.308 104.203C122.65 104.001 122.924 103.839 123.197 103.677C122.858 103.416 122.559 103.224 121.949 102.661C123.311 102.778 124.101 102.864 125.068 102.938C124.807 103.277 124.438 103.588 124.519 103.725C124.681 103.999 124.979 104.191 125.238 104.315C125.577 104.576 126.235 103.816 126.435 104.622C127.104 104.503 127.947 104.834 128.496 104.047C128.362 103.665 128.256 103.173 128.15 102.682C129.646 103.181 129.646 103.181 131.583 102.865C131.76 102.852 131.829 102.812 131.938 102.839C132.836 102.953 132.836 102.953 133.031 102.191C130.661 101.933 130.661 101.933 129.241 102.497C129.188 102.252 129.489 101.981 128.973 101.733C128.307 101.388 127.932 102.626 127.269 101.819C126.727 101.216 126.243 102.426 125.767 102.246C125.633 101.864 125.567 101.441 125.337 101.208C125.106 100.975 124.671 100.864 124.63 100.796C124.124 101.188 123.714 101.431 123.276 101.783C122.992 101.304 122.83 101.031 122.871 101.099C121.632 100.724 120.878 101.633 119.83 101.423C119.721 101.395 119.528 101.694 119.255 101.856C119.594 102.117 119.893 102.309 120.164 102.611C119.999 102.8 119.807 103.099 119.642 103.289C119.832 103.454 120.062 103.687 120.24 103.674C120.964 103.337 121.67 103.75 122.308 104.203ZM140.801 111.72C140.503 111.527 140.204 111.335 139.918 111.32C139.196 111.193 138.378 111.216 137.685 110.98C136.079 110.454 134.388 110.717 132.727 110.408C132.223 110.337 131.646 111.233 131.187 110.304C130.955 110.534 130.734 110.942 130.42 111.035C129.997 111.101 129.537 110.635 129.03 111.028C128.825 111.149 128.729 111.299 128.633 111.448C128.605 111.557 128.726 111.762 128.767 111.83C128.876 111.858 129.053 111.846 129.19 111.765C129.326 111.684 129.491 111.494 129.559 111.453C131.003 111.706 132.476 111.388 133.864 111.859C134.666 112.122 135.593 112.127 136.479 112.064C137.188 112.013 137.679 111.907 138.317 112.36C138.996 112.882 140.032 112.915 140.801 111.72Z" fill="#333333"/>
</svg>
