<svg width="171" height="167" viewBox="0 0 171 167" fill="none" xmlns="http://www.w3.org/2000/svg">
<path d="M27.3999 133.999C27.0999 133.299 26.1999 133.699 25.5999 133.499C25.5999 132.999 25.5999 132.599 25.5999 132.299C25.4999 132.199 25.4999 132.099 25.3999 132.099C23.8999 132.599 23.0999 130.999 21.7999 130.899C20.4999 130.699 19.7999 129.799 19.5999 128.499C19.4999 127.999 19.6999 127.599 20.1999 127.399C17.9999 125.599 19.3999 123.799 20.0999 121.999C20.9999 119.699 22.7999 119.399 24.8999 119.499C25.2999 120.699 25.0999 121.599 24.2999 122.399C25.8999 123.499 26.3999 121.899 27.4999 121.599C27.7999 122.199 28.0999 122.799 28.3999 123.299C28.3999 123.899 27.4999 124.099 27.8999 124.799C28.5999 125.699 28.8999 124.299 29.6999 124.499C30.6999 125.399 30.5999 126.799 30.5999 128.099C30.9999 128.199 31.2999 128.299 31.5999 128.399C31.4999 129.099 30.4999 129.299 30.4999 129.999C30.4999 130.799 31.2999 130.199 31.5999 130.799C30.2999 131.699 29.3999 133.299 27.3999 133.999Z" fill="black"/>
<path d="M40.6 69.199C40.1 69.399 40.6 70.199 40.1 70.199C39.3 70.399 39 69.899 38.8 69.599C38.3 68.899 38.9 67.899 38.5 67.299C38 66.499 37.8 65.999 38.4 65.199C38.9 64.499 38.6 63.599 39 62.699C40 60.599 39.9 60.499 42.2 60.499C42.3 60.599 42.4 60.599 42.4 60.699C42.4 61.099 42.4 61.399 42.4 61.899C43.1 62.299 44.2 61.999 44.7 63.299C45 64.199 46 64.899 45.8 66.099C45.6 66.999 45.9 67.999 45 68.799C44.5 69.199 44.1 69.999 44.1 70.899C44.1 71.499 43.6 71.899 42.9 71.999C42.2 72.099 41.9 71.699 41.6 71.299C41.1 70.599 40.9 69.899 40.6 69.199Z" fill="black"/>
<path d="M1.09996 96.6991C2.09996 95.3991 3.49996 94.8991 5.09996 94.7991C6.19996 96.0991 4.39996 96.3991 4.19996 97.1991C5.39996 98.2991 6.29996 96.4991 7.39996 97.1991C7.99996 97.7991 7.19996 97.9991 6.99996 98.4991C7.39996 98.9991 8.09996 98.4991 8.39996 98.7991C8.79996 99.8991 8.09996 101.199 8.99996 102.299C8.09996 103.099 8.29996 104.699 6.99996 105.299C5.79996 105.099 5.09996 104.199 4.19996 103.499C3.39996 102.899 2.09996 102.999 1.49996 101.499C2.09996 100.099 0.599964 98.4991 1.09996 96.6991Z" fill="black"/>
<path d="M154.9 65.499C154 65.199 153.2 65.799 152.6 64.999C152 64.199 151.6 63.499 151.6 62.399C151.6 59.099 151.7 55.899 151.6 52.599C151.6 51.799 151.9 51.299 152.2 50.599C153 48.899 153.9 47.199 155.1 45.799C155.7 45.099 156.3 44.599 157.2 44.199C157.7 43.999 158 44.599 158.6 44.099C159.1 43.699 159.6 44.899 160.3 44.799C160.7 45.899 159.8 46.399 159.3 46.999C160 47.299 160.8 47.299 161.5 47.699C162.2 48.099 162.7 48.499 162.6 49.299C162.4 50.299 163.2 50.699 163.7 51.299C163.5 51.599 163 51.699 163.2 52.199C164.4 55.599 163.5 57.899 162.5 60.699C162.2 61.499 161.8 62.399 161.7 63.099C161.6 64.699 160.5 65.899 160.2 67.399C160 68.499 159.3 69.199 158 69.099C157.8 69.099 157.6 69.599 156.9 69.499C156.7 69.299 156.2 68.999 156.2 68.699C156.2 67.699 156.1 66.899 155.1 66.399C154.7 66.599 154.9 65.999 154.9 65.499Z" fill="black"/>
<path d="M100.6 147.199C101.7 147.499 103.1 146.599 104 147.999C103.6 148.799 103.3 149.499 102.9 150.199C103.4 150.699 103.7 150.499 104.1 150.299C105.8 149.599 106.2 149.899 106.8 151.499C106.9 151.699 106.8 152.099 107.1 152.199C109 152.599 108.6 154.499 109.4 155.599C108.6 156.599 110 157.499 109.5 158.299C109 159.199 109.2 160.399 108.1 160.999C107.8 161.199 107.9 161.499 107.9 161.699C107.5 163.899 106.6 165.599 104.3 166.399C104 166.499 103.9 166.999 103.2 166.799C102.9 166.199 102.6 165.499 102.2 164.699C101.6 164.499 100.6 164.999 100.8 163.699C99.8 163.699 98.8 163.699 97.7 163.699C97.5 162.199 97.7 160.599 96.5 159.499C96.4 159.399 96.4 159.099 96.5 158.999C97.2 157.699 96.7001 156.199 97.3 154.999C97.6001 154.399 97.8 153.899 97.4 153.299C96.5 151.899 97.4 150.799 98.1 149.799C98.8 148.799 99.7 148.099 100.6 147.199Z" fill="black"/>
<path d="M127.5 77.1991C127.1 78.0991 126.3 77.8991 125.4 77.9991C125.6 79.0991 125 80.3991 125.9 81.4991C125 81.4991 125 81.4991 124.6 81.1991C124 81.5991 123.8 82.1991 123.3 82.8991C123.4 80.8991 122.6 79.4991 121.2 78.4991C120.6 78.3991 120.5 78.8991 120.1 78.9991C119 76.9991 119 75.9991 119.9 70.7991C120.3 68.0991 121.7 65.8991 123.7 63.6991C124.3 63.5991 125.3 65.2991 126.2 63.5991C127.1 65.0991 125.5 65.9991 125.4 67.4991C126.3 67.0991 127.1 66.7991 128 67.0991C128.5 67.4991 127.9 68.1991 128.4 68.5991C129.2 69.2991 129.9 69.9991 128.8 70.9991C130 71.8991 128.5 72.5991 128.7 73.4991C128.9 74.3991 128.7 75.2991 128.7 76.1991C127.8 75.9991 127.7 74.9991 126.8 75.1991C125.9 76.2991 127.3 76.3991 127.5 77.1991Z" fill="black"/>
<path d="M90.7 95.8989C91.5 95.8989 92.2 95.8989 92.9 95.8989C93.4 96.3989 93.2 97.5989 92.6 98.8989C93.9 99.9989 94.4 98.3989 95.1 98.0989C95.9 98.0989 96 98.7989 96.3 98.8989C96.5 99.6989 95.6 99.8989 95.9 100.699C96.5 100.999 97.7 100.699 98 101.699C98.2 102.399 98.3 103.299 97.5 103.899C97.9 103.999 98.2 104.099 98.5 104.199C98.4 104.999 97.4 105.599 98 106.599C96.8 108.199 94.8 108.799 93.3 109.999C93 110.199 92.4 110.999 91.7 110.499C91.4 110.099 92.1 110.099 92 109.699C91.2 109.199 90.3 109.799 89.5 109.399C89.2 108.799 89.6 107.899 88.7 107.499C87.5 108.099 86.4 108.299 85.4 106.699C86.7 105.799 88.5 105.499 88.8 103.499C87.7 103.499 87 104.499 86 104.599C85.8 104.399 85.5 104.199 85.2 103.799C85.1 103.699 85.3 103.699 85.4 103.499C86 102.299 87.9 102.499 88.1 100.899C89.3 100.399 89.2 99.0989 89.4 98.1989C89.5 97.2989 90 96.6989 90.7 95.8989Z" fill="black"/>
<path d="M44.5999 158.199C44.8999 157.499 45.4999 157.299 44.9999 156.499C44.6999 156.099 43.8999 156.699 43.0999 156.299C43.0999 156.099 42.9999 155.899 42.8999 155.499C42.7999 155.399 42.6999 155.299 42.5999 155.399C42.2999 155.799 41.8999 155.799 41.3999 155.799C40.0999 155.799 39.7999 155.399 39.6999 153.999C39.6999 153.399 40.0999 153.099 40.1999 152.599C39.7999 152.599 39.2999 152.499 38.6999 152.499C38.2999 150.499 39.3999 148.699 39.7999 146.799C39.9999 145.899 41.3999 145.399 42.5999 145.399C42.9999 145.599 42.8999 145.999 42.9999 146.199C43.1999 146.599 43.2999 146.499 43.4999 146.299C44.0999 145.799 44.7999 145.699 45.2999 146.399C45.7999 147.099 46.4999 146.999 47.1999 147.099C47.5999 147.499 47.2999 147.999 47.3999 148.399C47.6999 148.899 48.1999 148.599 48.6999 148.699C49.6999 149.399 49.1999 150.899 50.0999 151.799C47.2999 156.499 46.5999 157.299 44.5999 158.199Z" fill="black"/>
<path d="M75.9999 41.3991C75.6999 39.8991 74.7999 39.4991 73.2999 39.7991C71.9999 37.2991 72.4999 34.6991 72.7999 32.1991C72.8999 31.6991 73.1999 30.9991 73.0999 30.4991C72.8999 29.3991 73.6 28.4991 73.7999 27.4991C73.8999 26.6991 75.0999 26.4991 75.8999 26.0991C76.8999 26.9991 76.8999 26.9991 77.1999 28.1991C77.4999 28.1991 77.8999 28.1991 77.5999 28.1991C78.9999 28.1991 78.3999 29.1991 78.9999 29.3991C79.2999 29.4991 79.8999 29.8991 79.6999 30.3991C79.4999 31.2991 80.7999 31.8991 80.1999 32.5991C79.5999 33.2991 79.9999 34.1991 79.5999 34.7991C78.7999 36.3991 78.4999 38.1991 78.0999 39.8991C77.6999 41.0991 77.0999 41.4991 75.9999 41.3991Z" fill="black"/>
<path d="M133.5 120.699C133.1 120.399 132.8 119.999 132.2 119.899C130.5 119.799 130.6 119.699 130.2 117.899C129 117.499 127.9 117.899 126.8 118.399C126.3 117.899 126.6 117.399 126.4 116.899C126.8 116.799 127.1 116.699 127.5 116.499C127.5 115.599 127.5 114.599 127.5 113.399C127 113.599 126.4 113.699 125.7 113.999C125.4 113.999 125.3 113.399 124.9 113.299C125.5 111.699 126.8 110.699 127.9 109.599C129.2 109.899 130.7 108.399 131.9 109.999C131.9 110.099 131.8 111.899 131.9 112.299C131.6 112.299 131.4 112.399 131.1 112.399C130.9 112.399 130.7 112.399 130.6 112.399C130.2 112.799 130.5 113.499 129.9 113.899C131.3 113.399 132.5 112.799 133.4 111.799C133.8 112.199 134.2 112.599 134.8 112.399C133.6 113.399 135.2 114.599 133.8 115.499C134.9 115.499 135 114.799 135.4 114.699C135.8 114.599 136.2 114.599 136.6 114.499C137.1 115.499 137.8 116.399 137.2 117.699C136.5 118.299 134.9 118.199 134.6 119.899C135.8 119.699 136.6 118.999 137.3 118.399C138.1 118.499 138 118.899 138 119.299C136.6 119.199 136.8 120.899 135.6 121.299C134.7 121.599 133.9 122.399 132.7 123.199C132.8 121.899 133.2 121.299 133.5 120.699Z" fill="black"/>
<path d="M108.5 38.899C108.2 39.199 107.9 39.499 107.5 39.899C108.4 40.499 106.5 41.599 107.9 42.199C105.8 44.699 105.8 44.699 105.7 47.299C104.9 47.299 104.1 47.299 103.2 47.299C103 47.199 103.2 46.799 103 46.499C100.5 46.199 99.9 45.599 99.8 43.099C99.8 42.399 100 41.699 99.3 41.199C99.8 40.499 99.5 39.499 100.1 38.699C101.2 37.099 102.5 35.899 103.8 34.499C104.3 34.199 104.8 34.399 105.2 34.499C105.4 35.499 104.1 36.099 105 37.199C105.3 36.699 105.6 36.299 105.9 35.899C106.9 36.899 108.5 37.299 108.5 38.899Z" fill="black"/>
<path d="M149.4 1.29902C149 1.89902 148.2 1.19902 147.8 1.89902C148.6 2.29902 149.4 1.99902 150.3 2.09902C150.6 3.19902 151.3 4.29902 151.7 5.49902C152.6 7.99902 152 10.199 151.1 12.499C150.7 13.399 150.2 13.699 149.1 13.499C148.8 12.899 148.5 12.299 148.2 11.499C147.6 11.299 146.6 11.499 146.2 10.399C146.3 8.59902 146.3 6.59902 145 4.89902C145.4 4.19902 145.8 3.49902 146.1 2.79902C145.8 2.69902 145.5 2.59902 145 2.39902C145.3 1.49902 145.6 0.699023 146.4 -0.000976562C147.1 -0.000976562 147.9 -0.000976562 148.7 -0.000976562C149 0.399023 149.5 0.599023 149.4 1.29902Z" fill="black"/>
<path d="M70.5 68.1989C70.1 68.7989 69.5 68.5989 69.1 68.5989C67.7999 67.3989 68.6 65.5989 67.7 64.2989C69.2999 61.0989 69.2999 61.0989 72.1 59.8989C72.7 59.9989 73 60.3989 73.2 60.8989C73.3999 61.4989 72.2999 61.5989 72.7 62.2989C73.2 62.8989 73.6 62.4989 74 62.0989C75.6 62.6989 75.2 64.6989 76.5 65.5989C76.3 66.6989 76.7 67.8989 76.3 68.9989L74 71.7989C73.6 71.7989 73.3 71.7989 72.9 71.7989C72.6 71.2989 71.9 69.4989 72 69.2989C71.5 69.0989 71 68.6989 70.5 68.1989Z" fill="black"/>
<path d="M58 88.2991C58.8 88.2991 59.5 88.2991 60.2 88.2991C60.8 88.6991 60.3 89.2991 60.6 89.7991C61 90.1991 61.5 89.8991 61.9 89.9991C62.5 91.2991 63.3 92.4991 63.7 93.7991C64.1 95.2991 63.5 96.6991 63 98.0991C61.9 98.5991 61.4 97.6991 60.8 97.0991C60.1 97.0991 59.4 97.0991 58.6 97.0991C58.2 96.0991 57.7 95.1991 56.4 95.4991C55.8 94.7991 56.6 93.5991 55.6 93.0991C56.1 92.3991 56.6 91.6991 56.7 90.8991C56.8 89.8991 57.3 89.0991 58 88.2991Z" fill="black"/>
<path d="M165.4 92.199C164.5 91.699 163.6 91.499 163 90.499C163.4 90.299 163.8 89.999 164.3 89.699C163.1 89.299 162.1 90.499 161 89.699C161.6 88.699 162.9 88.699 163.7 87.999C163.8 87.399 163.4 87.399 162.9 87.199C162.1 86.899 162 88.199 161.2 87.799C160.9 87.499 160.8 87.099 161.1 86.899C162.9 85.899 164.3 84.499 165.8 83.199C166.7 82.399 167 82.199 168.5 81.999C168.4 82.599 167.9 82.799 167.5 83.199C168.2 83.999 168.8 83.299 169.5 82.999C169.6 84.099 170.5 85.099 170.1 86.599C168.3 87.899 167.4 90.399 165.4 92.199Z" fill="black"/>
</svg>
