<svg width="149" height="174" viewBox="0 0 149 174" fill="none" xmlns="http://www.w3.org/2000/svg">
<path d="M82.2999 101.699C82.5999 101.099 83.0999 100.599 83.2999 99.999C83.9999 97.799 85.8999 96.999 87.7999 96.499C89.0999 96.099 90.3999 95.699 91.8999 95.799C95.1999 95.999 97.5999 97.599 99.1999 100.399C99.9999 101.699 100.7 102.999 101 104.499C101.2 105.499 101.5 106.699 101.2 107.599C100.1 111.199 98.0999 114.099 94.3999 115.499C93.3999 115.899 92.2999 116.199 91.2999 116.499C91.0999 116.599 90.8999 116.599 90.7999 116.499C88.0999 115.199 85.4999 113.699 83.9999 111.099C83.2999 109.999 82.6999 108.699 82.8999 107.199C83.0999 105.499 82.3999 103.699 83.3999 101.999C82.9999 101.999 82.6999 101.899 82.2999 101.699ZM87.6999 109.999C89.0999 109.999 90.2999 110.199 91.3999 109.999C93.3999 109.499 96.0999 105.399 95.9999 103.299C95.9999 102.999 95.8999 102.499 95.6999 102.399C94.6999 101.799 93.5999 101.299 92.5999 100.799C91.9999 101.899 90.0999 100.699 89.7999 102.399C89.6999 103.099 87.9999 102.699 88.4999 103.999C87.1999 105.899 87.9999 107.999 87.6999 109.999Z" fill="black"/>
<path d="M2.69991 133.799C1.79991 133.599 1.29991 133.199 1.59991 132.199C1.69991 132.099 1.99991 132.099 2.19991 131.899C3.99991 130.599 6.09991 130.399 8.09991 129.799C8.99991 129.499 10.2999 129.799 11.0999 130.299C13.3999 131.999 15.8999 133.499 16.8999 136.499C17.7999 138.999 17.3999 142.099 15.8999 144.099C14.9999 145.299 13.6999 145.999 12.7999 147.199C11.2999 146.999 9.69991 147.599 8.09991 146.699C7.39991 146.299 4.29991 144.599 3.69991 144.199C2.29991 143.099 1.69991 141.599 1.19991 140.099C1.09991 139.799 0.89991 139.399 0.99991 139.099C1.69991 137.299 1.19991 135.299 2.69991 133.799Z" fill="black"/>
<path d="M142.8 79.3991C143.3 79.5991 143.6 79.6991 144 79.7991C143.7 80.6991 143.5 81.4991 143.2 82.2991C142.8 82.2991 142.3 82.3991 141.7 82.4991C141.9 82.7991 142 82.8991 142.2 83.1991C141.3 84.2991 140.2 85.1991 138.6 85.0991C138.2 85.0991 137.8 85.1991 137.4 85.3991C136.3 85.7991 135.2 85.7991 134.1 85.2991C133.7 85.0991 133 84.8991 132.9 85.0991C131.9 86.3991 131 84.6991 130 84.9991C129.6 85.0991 129.2 83.9991 128.3 83.9991C127.8 83.9991 127.4 83.2991 126.9 82.9991C126.3 82.6991 126.1 81.7991 125.2 81.8991C124.8 80.5991 123.4 79.8991 122.8 78.7991C121.3 76.2991 121.3 72.6991 122.5 70.2991C123.6 68.1991 125.7 67.4991 127.5 68.9991C128.4 69.6991 129.1 70.1991 130.2 69.3991C130.6 69.9991 130.9 69.6991 131.2 69.2991C131.6 68.5991 132.3 68.5991 132.9 68.6991C135.1 69.1991 137.2 69.7991 139 71.0991C140.5 72.1991 141.6 73.9991 142.9 75.3991C142.6 76.6991 144.3 77.8991 142.8 79.3991ZM125.8 77.5991C128 79.6991 131.6 80.7991 134.6 80.6991C136 80.5991 137.1 80.0991 138 79.1991C138.5 78.5991 139.1 78.0991 139.7 77.4991C139.4 77.0991 139.1 76.7991 139 76.4991C138.6 75.0991 137.8 74.1991 136.2 74.0991C135.5 73.9991 134.8 73.5991 134.1 73.3991C133.6 73.2991 132.8 72.9991 132.7 73.1991C132 74.1991 131.7 72.5991 130.8 73.3991C130.3 73.8991 129.5 74.5991 128.6 75.3991C127.9 74.8991 127.4 74.4991 126.9 74.0991C125.3 74.8991 126.2 76.2991 125.8 77.5991Z" fill="black"/>
<path d="M162.6 141.399C163.4 140.999 164.3 140.299 165.7 140.799C165.6 140.999 165.4 141.199 165.2 141.499C165.7 141.599 166.6 141.699 166.7 141.899C167.1 143.599 169 143.999 169.6 145.599C170.6 148.199 171.4 150.799 170 153.599C169.8 153.899 169.7 153.999 169.9 154.399C170.5 155.599 169.9 156.399 168.9 156.999C168.1 157.399 168.6 157.799 169 158.299C168.1 159.499 167.1 160.699 166.2 161.899C165.2 161.899 164.3 161.899 163.2 161.899C162.6 161.299 162 160.599 161.3 159.899C160.7 159.199 159.9 158.799 159.4 157.999C158.2 156.199 157.9 154.299 158.4 152.299C158.7 150.799 159.5 149.299 159.9 147.799C160.1 146.799 160.4 145.999 161.4 145.399C161.8 145.199 162.1 144.399 162.1 143.799C162.1 142.999 162.6 142.699 163 142.199C162.9 142.099 162.7 141.699 162.6 141.399Z" fill="black"/>
<path d="M185.2 65.3991C184.8 65.9991 184.4 66.4991 184.1 67.0991C183.9 66.8991 183.6 66.4991 183.5 66.4991C181.6 66.7991 180.9 64.8991 179.6 64.1991C179.5 64.0991 179.4 63.5991 179.4 63.4991C180.8 62.2991 179.3 61.4991 179.1 60.4991C178.9 60.6991 178.7 60.8991 178.5 60.9991C178.4 60.8991 178.3 60.8991 178.3 60.7991C178.4 59.5991 177.7 58.2991 178.9 57.2991C179.2 57.0991 179.1 56.4991 179.3 56.0991C179.8 55.1991 180 53.9991 180.9 53.3991C181.9 52.7991 181.5 51.5991 182.5 50.8991C184.1 49.6991 186.7 49.0991 188.6 49.7991C191.4 50.7991 193.2 52.9991 194.2 55.4991C195 57.5991 195.4 59.8991 195 62.1991C194.8 63.4991 193.6 64.3991 192.6 65.1991C192.3 65.3991 191.5 65.0991 190.8 64.9991C190.8 65.1991 190.9 65.5991 191 65.8991C191.3 66.2991 191.4 66.7991 190.8 66.8991C190.2 67.0991 190 66.6991 190.1 66.0991C190.1 65.9991 189.9 65.8991 189.6 65.6991C189.2 66.0991 188.7 66.3991 188.2 66.8991C188.1 66.5991 188 66.2991 187.9 65.6991C187.2 66.3991 186.5 66.9991 185.6 67.7991C185.5 66.8991 185.4 66.1991 185.2 65.3991ZM190.3 55.7991C190.2 55.6991 190 55.5991 189.9 55.3991C189.5 54.2991 188.3 54.4991 187.4 54.1991C187 53.9991 186.2 54.7991 185.5 55.0991C185.2 55.2991 184.7 56.1991 184.3 56.7991C184 57.2991 183.7 58.0991 183.3 58.1991C182.4 58.2991 182.6 58.7991 182.5 59.2991C182.4 59.6991 182.2 59.9991 182.1 60.2991C184 62.1991 185.8 61.3991 187.8 60.4991C190 59.4991 190.4 57.7991 190.3 55.7991Z" fill="black"/>
<path d="M47.7999 93.499C48.2999 93.899 48.4999 94.099 48.6999 94.299C48.8999 93.999 48.9999 93.299 49.1999 93.299C49.7999 93.199 50.5999 93.099 50.9999 93.399C52.2999 94.299 53.5999 95.299 54.5999 96.499C55.4999 97.699 56.0999 99.099 56.4999 100.599C56.6999 101.399 56.5999 102.399 56.0999 103.399C55.0999 105.499 54.0999 107.299 51.9999 108.499C51.0999 108.999 49.9999 109.099 49.1999 109.599C48.8999 109.799 48.3999 109.899 47.9999 110.099C47.8999 109.799 47.6999 109.499 47.4999 109.199C47.1999 109.599 46.9999 109.599 46.4999 109.299C45.6999 108.699 43.9999 107.199 43.2999 106.599C40.9999 104.699 42.2999 102.399 42.3999 100.299C42.3999 99.799 43.2999 99.299 43.7999 98.699C45.6999 99.699 46.5999 101.299 47.2999 103.099C49.0999 102.899 49.3999 101.199 50.3999 100.199C50.5999 99.999 50.4999 99.399 50.4999 98.499C49.5999 99.399 48.9999 99.999 48.4999 100.499C47.0999 100.399 47.2999 98.699 46.0999 98.599C46.0999 97.499 45.8999 96.399 46.0999 95.399C46.4999 94.599 47.1999 94.199 47.7999 93.499Z" fill="black"/>
<path d="M152 22.599C152.8 21.799 153.4 21.199 154 20.599C155.1 20.599 156.2 20.599 157.4 20.599C157.8 19.099 156.7 19.699 156 19.499C156.1 19.299 156.1 19.099 156.2 18.999C157.1 18.299 155.8 17.999 155.9 17.199C156.5 15.799 158.1 15.599 159.3 14.799C159.6 14.599 160.3 14.699 160.7 14.899C162.9 15.799 163.7 17.799 164.6 19.799C165.2 21.099 164.6 22.599 165.6 23.699C165.2 25.199 165 26.799 164.3 28.099C163.5 29.499 161.9 30.199 160.4 30.399C159.6 30.499 158.8 31.499 158 30.799C157.3 30.299 156.3 30.599 155.7 29.699C155.2 29.099 154.2 28.999 154 27.999C153.9 27.499 152.9 27.399 152.4 26.599C151.8 25.199 152.4 23.899 152 22.599Z" fill="black"/>
<path d="M140 109.799C139.7 109.199 139.3 108.499 139 107.899C139.3 106.299 141.2 106.699 141.8 105.499C142.4 104.299 144.2 104.799 145.2 103.499C144.8 103.199 144.4 102.999 144.1 102.699C144.2 102.599 144.2 102.399 144.3 102.399C146.1 102.099 147.5 102.999 148.7 104.199C149.7 105.099 150.3 106.399 151.1 107.499C151.5 108.099 150.8 108.699 151.4 109.099C152 109.499 152.2 109.999 152.1 110.699C152 111.399 152.7 112.199 152.6 112.599C152.3 113.499 152.3 114.499 152 115.299C151.4 116.899 150.6 118.399 149.3 119.599C148.6 120.299 147.5 120.499 146.2 120.299C143.1 119.799 143 119.799 141.6 118.199C140.5 116.999 139.8 115.599 139.5 113.899C139.3 112.899 138.8 112.099 139.4 111.099C138.5 110.499 139.9 110.499 140 109.799ZM142.5 107.999C142.8 109.399 143.1 110.499 143.4 111.599C143.5 111.899 143.5 112.299 143.4 112.399C142.2 113.499 143.3 114.399 143.6 115.399C145.7 115.399 145.6 115.299 146.7 113.799C148 111.999 147.8 109.999 147.7 107.999C147.7 107.599 147.3 107.199 147 106.899C146.4 106.399 145.4 107.199 144.8 106.299C144.6 106.599 144.4 106.899 144.2 107.199C143.2 106.599 143 107.699 142.5 107.999Z" fill="black"/>
<path d="M66.8999 35.7991C69.3999 37.1991 69.9999 38.3991 68.5999 40.4991C67.8999 41.5991 68.7999 42.7991 67.7999 43.6991C67.6999 43.7991 67.9999 44.5991 68.1999 44.9991C68.5999 46.1991 68.9999 46.2991 70.3999 45.9991C72.9999 45.2991 74.1999 43.4991 74.7999 40.9991C73.7999 40.6991 72.8999 40.4991 71.8999 40.1991C70.6999 39.7991 71.1999 38.4991 70.6999 37.8991C71.2999 37.2991 71.8999 36.6991 72.4999 36.0991C74.1999 35.1991 75.1999 36.9991 76.6999 37.3991C77.7999 39.1991 79.3998 40.7991 79.1999 43.1991C78.9999 46.1991 77.6999 48.7991 74.3999 49.9991C71.5999 50.9991 69.3999 50.5991 67.0999 48.4991C65.6999 47.1991 64.4999 45.8991 64.3999 43.5991C64.0999 40.6991 64.6999 37.9991 66.8999 35.7991Z" fill="black"/>
<path d="M62.9999 147.599C60.5999 148.299 59.2999 146.699 57.6999 145.699C56.1999 144.799 56.0999 143.099 55.5999 141.699C55.1999 140.399 55.9999 138.999 56.4999 137.799C56.8999 136.699 57.5999 135.799 58.0999 134.799C57.8999 134.699 57.4999 134.599 57.1999 134.499C57.5999 134.099 57.9999 133.699 58.3999 133.199C57.7999 133.099 57.2999 132.999 56.4999 132.899C56.9999 132.499 57.3999 131.999 57.6999 131.999C58.5999 132.099 59.5999 131.699 60.5999 132.299C63.0999 133.699 64.3999 135.999 65.3999 138.499C66.5999 141.899 65.8999 144.999 62.9999 147.599Z" fill="black"/>
<path d="M93.2999 160.599C92.9999 161.099 92.7999 161.599 92.5999 162.099C94.3999 163.899 95.0999 166.199 94.7999 168.699C94.6999 169.299 94.6999 169.799 94.2999 170.399C93.3999 171.499 93.2999 173.099 91.5999 173.599C90.8999 173.799 90.0999 174.099 89.5999 173.799C88.1999 173.099 86.6999 172.599 85.7999 171.199C85.3999 170.499 84.9999 169.799 84.8999 168.899C84.5999 165.899 85.7999 163.399 87.3999 160.899C87.6999 160.399 88.2999 159.999 88.9999 159.699C89.7999 159.299 90.2999 158.999 91.0999 159.599C91.7999 159.999 92.4999 160.199 93.2999 160.599Z" fill="black"/>
<path d="M191.7 98.099C190.6 97.299 190 95.799 188.3 95.799C187.9 95.0991 187.2 94.399 187.1 93.599C186.8 91.699 187.2 89.999 189.2 89.099C189.4 88.999 189.6 88.699 189.8 88.499C189.5 88.399 189.2 88.299 189.1 88.299C189.6 87.799 190.2 87.199 190.7 86.699C190.6 86.599 190.4 86.399 190.3 86.299C190.5 86.299 190.8 86.199 191 86.199C192.1 86.399 193.4 85.5991 194.3 86.799C195.5 88.299 196.4 89.799 196.8 91.699C197.3 94.199 194.8 96.999 193 97.899C192.5 98.099 191.9 97.199 191.7 98.099Z" fill="black"/>
<path d="M119.4 131.299C119.4 132.099 119.4 132.399 119.4 132.799C119.7 134.699 118.1 135.299 117.1 136.099C116 136.899 115 135.699 114 135.399C113.1 135.099 112.3 134.199 111.5 133.499C110.2 132.299 109.7 129.599 110.5 127.999C110.7 127.599 110.5 126.999 111.4 126.899C111.9 126.899 112.4 125.999 112.9 125.499C114 124.099 115 123.899 116.2 125.199C117 125.999 117.9 126.699 118.4 127.799C119 128.999 119.7 130.199 119.4 131.299Z" fill="black"/>
<path d="M89.6999 69.199C90.8999 70.499 92.1999 71.599 92.7999 73.299C93.5999 75.499 93.0999 76.699 91.2999 77.999C89.1999 79.499 87.6999 79.199 85.8999 77.299C85.5999 76.999 85.3999 76.799 85.1999 76.599C84.8999 75.599 85.5999 74.499 84.5999 73.799C83.9999 71.299 85.6999 69.199 88.3999 69.199C88.6999 69.199 89.1999 69.199 89.6999 69.199Z" fill="black"/>
<path d="M115 41.1989C115.5 40.7989 115.8 40.5989 116.1 40.2989C115.7 39.9989 115.4 39.6989 115.1 39.3989C115.2 39.1989 115.4 39.0989 115.6 38.7989C115 38.6989 114.4 38.4989 113.8 38.3989C114.6 36.2989 116.5 36.1989 118 35.4989C118.3 35.3989 118.9 35.7989 119.3 35.9989C120.8 37.1989 121.8 38.5989 122.6 40.2989C122.7 40.4989 122.8 40.8989 122.7 40.9989C121.4 42.0989 123.1 44.1989 121.4 44.9989C121.1 45.0989 120.3 44.2989 119.4 44.1989C119.8 44.5989 120.1 44.9989 120.5 45.3989C119.8 45.7989 119.2 46.2989 118.5 46.6989C118.3 46.7989 118 46.6989 117.7 46.6989C117.5 46.6989 117.2 46.5989 117.3 46.4989C117.5 44.9989 115.7 46.0989 115.5 45.0989C115.4 44.5989 115 44.1989 115 43.6989C115 42.9989 115 42.0989 115 41.1989Z" fill="black"/>
<path d="M118.9 1.19902C118.9 0.599023 118.9 0.299023 118.9 -0.000976562C119.7 -0.000976562 120.5 -0.000976562 121.3 -0.000976562C122.5 1.79902 124.2 3.59902 123.6 6.39902C123.2 6.39902 122.7 6.49902 122 6.49902C122 5.69902 122 4.99902 122 4.29902C121.6 4.39902 121.2 4.29902 121.1 4.49902C120.9 4.69902 120.9 5.09902 120.7 5.39902C120.4 5.89902 120.2 5.79902 119.7 5.09902C119.4 4.59902 119 4.19902 118.5 3.69902C119.1 3.39902 119.4 3.29902 119.8 3.09902C118.7 2.49902 118.7 2.59902 119.6 1.59902C119.8 1.39902 119.7 0.999023 119.7 0.499023C119.5 0.699023 119.3 0.799024 118.9 1.19902Z" fill="black"/>
</svg>
