<svg width="219" height="250" viewBox="0 0 219 250" fill="none" xmlns="http://www.w3.org/2000/svg">
<path d="M-15.5 26.6123C-13.8 27.4123 -13.8 27.4123 -13 25.7123C-11.9 25.3123 -10.5 26.1123 -9.5 25.1123C-8.3 25.4123 -7.2 25.8123 -6 25.9123C-4.1 26.2123 -3.1 27.6123 -2.1 28.8123C-1.4 29.6123 -0.599998 30.5123 0 31.4123C0.800003 32.5123 1.7 33.4123 2.5 34.5123C3.2 35.5123 3.8 36.5123 4.4 37.5123C4.60001 37.8123 4.8 38.1123 4.8 38.4123C4.7 39.2123 5 39.7123 5.6 40.3123C6.7 41.4123 6.6 43.0123 7 44.3123C7.3 45.6123 7.1 47.0123 7 48.4123C7 48.9123 6.89999 50.0123 5.8 49.2123C5.7 49.1123 5.3 49.6123 5.1 49.7123C4.8 49.9123 4.3 50.2123 4.2 50.1123C3 49.0123 2.7 49.8123 2.2 50.8123C1.39999 52.3123 0.899994 52.2123 -1.3 51.8123C-2.60001 51.6123 -4 51.5123 -4.8 50.4123C-6.9 47.3123 -9 44.2123 -9.3 40.3123C-9.4 38.7123 -9.9 37.1123 -11.2 35.9123C-12.3 34.9123 -13.1 33.5123 -14.6 33.0123C-15.1 32.8123 -15.4 32.3123 -15.8 31.9123C-16.6 31.0123 -17 30.1123 -17 28.8123C-17 27.6123 -16 27.3123 -15.5 26.6123Z" fill="black"/>
<path d="M-22.3 76.5125C-22.3 78.5125 -22.3 80.4125 -22.3 82.4125C-21.8 80.9125 -21.9 79.4125 -21.8 77.9125C-21.8 77.3125 -22.1 76.6125 -21.3 76.2125C-20.6 75.8125 -19.8 75.5125 -19 75.3125C-18.7 75.3125 -18.2 75.9125 -18 76.3125C-17.8 76.8125 -18 77.3125 -18 77.9125C-17.5 77.7125 -17.3 77.5125 -17 77.5125C-16.5 77.6125 -15.8 78.0125 -15.6 77.8125C-14.2 76.8125 -12.6 77.4125 -11.2 77.4125C-10.5 77.4125 -9.5 77.8125 -9.2 78.3125C-8.4 79.6125 -6.8 80.0125 -6 81.6125C-6 82.3125 -5.90001 83.1125 -5.2 84.0125C-4.3 85.2125 -3.5 86.6125 -3.8 88.3125C-3.9 89.1125 -3.8 89.9125 -3.8 90.9125C-5.7 92.0125 -7.6 93.1125 -9.4 94.3125C-11.3 95.6125 -13.1 94.7125 -14.8 93.8125C-16 93.2125 -17.6 92.9125 -18 91.2125C-20.7 90.0125 -21.2 87.1125 -22.6 85.0125C-23.6 83.6125 -23.5 81.9125 -23.8 80.4125C-24 79.1125 -23.1 77.7125 -22.7 76.3125C-22.7 76.4125 -22.5 76.4125 -22.3 76.5125Z" fill="black"/>
<path d="M30.4 106.012C29.3 104.912 28 103.612 26.7 102.312C26.7 101.412 26.6 100.312 26.7 99.3122C26.8 98.9122 27.3 98.5122 27.7 98.3122C27.9 98.2122 28.3 98.6122 28.6 98.7122C29 97.9122 29.2 96.9122 30.6 97.1122C30.8 97.1122 31.2 97.2122 31.4 97.0122C32.1 96.5122 32.8 95.9122 33.6 96.1122C35.1 96.5122 36.8 96.8122 38 97.8122C40.4 99.9122 42.6 102.212 43.8 105.212C44.5 107.012 45.1 108.912 45.5 110.712C45.6 111.512 45.4 112.712 44.5 113.312C43 114.412 41.5 115.612 39.9 116.612C39.4 117.012 38.6 117.212 38 117.112C34 116.812 31.2 114.912 30 110.412C29.8 109.712 29.4 109.112 29.5 108.512C29.6 107.712 30.1 106.912 30.4 106.012Z" fill="black"/>
<path d="M37.2001 204.512C37.1001 204.012 37.0001 203.412 36.9001 202.912C36.9001 205.112 34.6001 205.912 34.1001 207.712C33.9001 208.412 32.9001 208.712 32.5001 208.312C31.8 207.712 31.4001 208.112 31.0001 208.412C30.0001 209.012 29.2001 209.012 28.2001 208.412C25.3 206.712 22.3 205.112 20.6001 202.012C18.5001 200.912 17.9001 198.612 16.6001 196.912C16.0001 196.112 15.8 194.912 15.3 193.812C16.1001 192.712 17.2001 193.012 18.5001 193.712C18.4001 193.112 18.4001 192.512 18.1001 192.112C17.7001 191.612 18.1001 191.412 18.3 191.312C19.2001 190.912 20.2001 190.612 21.0001 189.912C21.2001 189.712 21.7001 189.812 22.1001 189.912C22.7001 190.112 23.2001 190.512 23.9001 189.912C24.1001 189.712 24.7001 190.112 25.1001 190.212C28.4001 191.612 31.4 193.412 33.3 196.712C33.6001 197.112 34.2001 197.612 34.6001 198.012C35.9001 199.212 36.1001 200.912 37.1001 202.212C37.8 202.912 37.6001 203.612 37.2001 204.512Z" fill="black"/>
<path d="M27.4 8.11248C28.5 8.11248 29.2 8.11248 29.9 8.11248C30.9 8.11248 31.9 7.91248 32.1 9.31248C32.1 9.51248 32.5 9.71248 32.7 9.71248C33.9 9.51248 34.2 10.6125 34.9 11.1125C36.8 12.4125 37.1 14.5125 37.6 16.5125C37.9 17.6125 37.5 18.4125 36.2 19.2125C34.8 20.1125 33 20.6125 32 22.2125C31.1 22.2125 30.4 23.6125 29.4 22.5125C29.3 22.3125 28.9 22.3125 28.7 22.3125C25.3 22.4125 23.1 20.4125 21.3 17.8125C20.4 16.5125 19.2 15.3125 18.9 13.6125C18.8 12.9125 18.7 12.2125 18.6 11.5125C18.6 11.3125 18.7 10.9125 18.9 10.8125C20.3 10.3125 21.3 9.11248 22.6 8.61248C24.2 8.11248 26 8.01248 27.4 8.11248Z" fill="black"/>
<path d="M23.1 140.412C23.5 141.012 23.8 141.512 24.4 142.412C24.5 141.512 24.6 141.112 24.6 140.812C24.7 139.712 24.7 139.712 26.1 139.612C26.3 139.612 26.5 139.612 26.6 139.512C27.2 138.512 28.2 138.212 29.2 138.512C30.3 138.812 31.5 139.312 32.4 140.012C35.8 142.812 37.8 146.712 39.3 150.712C39.6 151.412 39.3 152.312 39.3 153.012C38.9 153.012 38.6 152.912 38.3 152.912C38.4 153.912 38.1 154.612 37 154.812C36.7 154.912 36.2 155.412 36.2 155.712C36.1 156.912 34.9 156.312 34.5 156.912C33.8 155.812 32.7 157.112 31.9 156.412C31.2 155.712 30.2 155.112 29.7 154.212C28.6 152.312 27.6 150.312 27 148.312C26.7 147.212 26.2 146.512 25.4 146.112C24.1 145.312 23 144.312 22.4 142.912C21.7 141.812 21.6 141.812 23.1 140.412Z" fill="black"/>
<path d="M-5.60004 143.212C-6.20004 142.412 -6.70004 141.812 -7.30004 141.112C-7.60004 141.712 -7.80003 142.012 -8.00003 142.512C-9.00003 142.012 -9.80004 141.212 -10.4 140.312C-11.7 138.412 -12.8 136.412 -14.1 134.512C-14.9 133.312 -15 131.912 -14.7 130.412C-13.5 130.112 -13.2 131.612 -12.2 132.012C-12.2 131.112 -12.2 130.312 -12.2 129.312C-10.2 129.012 -8.40004 128.812 -6.60004 128.512C-4.80003 130.112 -3.60004 131.912 -2.70004 133.912C-2.20004 135.112 -1.20004 135.912 -0.90004 137.312C-0.800041 137.812 -1.50004 138.512 -0.600037 138.912C-0.600037 138.912 -0.800041 139.512 -0.90004 139.512C-2.30004 139.012 -2.70003 141.012 -4.00003 140.712C-4.10003 140.712 -4.30004 141.212 -4.40004 141.512C-4.50004 141.812 -4.60004 142.112 -4.80003 142.412C-4.90003 142.612 -5.10004 142.812 -5.60004 143.212Z" fill="black"/>
<path d="M-22.9 186.912C-22.4 187.612 -22.1 188.112 -21.6 188.812C-21.5 188.412 -21.3 188.212 -21.4 188.012C-21.6 187.012 -21.8 186.012 -22.1 184.912C-21.4 184.912 -21 184.912 -20.5 184.912C-20.4 185.212 -20.2 185.512 -19.9 186.212C-19.9 185.212 -19.9 184.612 -19.9 184.012C-19.6 183.912 -19.3 183.912 -19.1 183.712C-18.7 183.412 -18 182.712 -17.9 182.712C-17.2 183.312 -16.4 182.912 -15.7 183.212C-14.7 183.612 -13.7 184.312 -13.8 185.512C-13.8 185.912 -14.3 186.312 -14.2 186.612C-14.1 186.912 -13.4 186.912 -13.2 187.212C-13 187.412 -13 188.112 -13.2 188.212C-13.9 188.812 -13.8 189.512 -13.7 190.212C-13.6 191.112 -14 191.612 -14.8 191.812C-15.6 192.012 -15.8 192.512 -16 193.312C-16.2 194.412 -17 195.112 -18.3 195.112C-18.7 195.112 -19.2 195.112 -19.6 195.212C-20.7 195.412 -22 195.212 -22.4 194.412C-23.2 192.512 -24.4 190.612 -24.2 188.312C-24 187.612 -23.4 187.312 -22.9 186.912Z" fill="black"/>
<path d="M190.7 199.012C188.8 200.512 188 202.612 187.6 204.912C187.4 206.212 186.2 206.412 185.3 206.612C184.5 206.812 183.8 206.812 183.2 207.512C182.9 207.812 182.1 207.812 181.8 207.612C180.7 206.912 179.5 206.412 178.5 205.612C175 202.512 172.4 198.612 169.9 194.712C167.4 190.712 164.8 186.712 162.9 182.412C162.3 181.012 162.3 181.112 163.8 180.012C165 182.312 166.1 184.612 167.4 186.912C168.4 188.712 169.7 190.312 171 192.212C171.3 191.512 171.3 191.012 170.8 190.312C168.3 186.712 165.9 183.012 164 178.712C164.3 178.512 164.7 178.312 165 178.012C165.1 178.112 165.3 178.212 165.6 178.512C165.6 177.912 165.6 177.512 165.6 177.012C166.5 176.812 167.3 176.712 168.4 176.412C169.2 176.812 169.6 178.212 171 178.412C171 179.912 172.2 180.612 172.9 181.712C173.7 183.012 174.8 184.212 175.6 185.212C176.5 185.112 177.1 185.012 177.8 184.912C180.1 184.712 180.1 184.812 181.5 186.112C183.1 187.512 184.2 189.512 186.3 190.412C186.4 190.512 186.6 190.712 186.6 190.812C186.7 192.312 187.5 192.812 188.9 193.212C190.1 193.512 190.4 194.712 190.5 195.912C190.4 196.812 190.6 197.712 190.7 199.012Z" fill="black"/>
<path d="M161.3 129.912C160 128.612 158.8 127.212 157.5 126.112C153.7 123.012 151.9 118.512 149.6 114.412C148.6 112.512 148.9 110.512 148.9 108.412C148.9 108.112 149.4 107.712 149.7 107.312C150.1 108.112 150.4 108.812 151 109.812C151 108.312 151 107.112 151 106.112C151.8 105.712 152.6 105.512 153.1 105.012C153.8 104.412 154.5 104.512 155.1 104.712C155.8 104.912 156.4 105.512 157.1 105.912C156.7 107.912 157.5 109.512 158.4 111.212C159.3 111.012 160.3 111.612 161.1 110.712C161.3 110.512 161.9 110.512 162.1 110.712C164.2 112.012 166.8 112.612 167.8 115.212C168 115.712 168.2 116.312 168.6 116.512C169.2 116.812 168.7 117.812 169.6 117.812C170.4 117.812 169.9 118.712 170 119.112C170.2 119.712 170.4 120.212 170.5 120.812C170.6 121.312 170.5 121.912 170.5 122.412C168.4 124.212 167.1 126.512 166 129.012C164.6 129.412 162.9 129.612 161.3 129.912Z" fill="black"/>
<path d="M93.2 24.3125C92 25.1125 90.9 25.9125 89.7 26.6125C89.6 26.7125 89.2 26.3125 88.7 26.0125C88.4 26.5125 88.3 26.9125 88 27.3125C87.7 27.7125 87.2 28.1125 86.9 28.5125C86.1 29.3125 85.4 30.2125 84.3 29.0125C84.2 28.9125 83.9 29.0125 83.8 29.0125C82.5 28.9125 81.3 29.2125 80 28.2125C79 27.4125 77.7 26.8125 76.7 25.8125C75.8 24.8125 74.8 24.0125 74.2 22.7125C73.2 20.8125 72.3 19.0125 72.6 16.8125C72.7 16.3125 73.1 15.8125 73.4 15.0125C74.1 15.6125 74.5 15.9125 75.1 16.4125C75.5 14.9125 75.5 13.2125 76.8 11.9125C77.3 12.3125 77.9 12.7125 78.5 13.2125C78.5 12.5125 78.5 11.8125 78.5 11.2125C80.3 10.9125 81.9 10.3125 83.7 10.4125C84.7 10.5125 85.6 10.8125 86.3 11.4125C87.1 12.2125 88.2 12.8125 88.8 13.8125C89.4 14.7125 90.3 15.5125 90.9 16.5125C92 18.1125 92.3 19.9125 93.1 21.6125C93.5 22.3125 93.2 23.4125 93.2 24.3125Z" fill="black"/>
<path d="M202.8 77.4123C202.9 76.9123 202.9 76.4123 203 75.8123C203.2 75.9123 203.4 76.0123 203.4 76.1123C204.1 77.8123 205 79.4123 205.4 81.3123C205.7 82.5123 206 83.6123 204.9 84.4123C204.1 85.0123 204.9 86.8123 203.2 86.7123C202.4 88.0123 201.1 87.9123 199.9 87.8123C199.6 88.7123 199.4 89.5123 199.1 90.3123C198.7 91.1123 197.4 91.4123 196 91.0123C195.7 90.9123 195.4 90.6123 195.1 90.6123C192.8 90.8123 192.8 90.8123 191.9 89.0123C191.4 88.1123 190.8 87.3123 190.5 86.3123C190 85.2123 189.3 84.4123 188.2 84.0123C186.5 83.3123 185.4 81.8123 185.1 80.0123C184.8 78.4123 185.6 76.9123 187 75.8123C187.7 76.7123 188.4 77.6123 189.4 78.9123C189.4 77.6123 189.4 76.7123 189.4 75.8123C189.4 74.9123 189.5 75.1123 190.9 74.5123C191.9 74.1123 193.3 74.6123 193.9 73.2123C194.9 73.2123 195.9 73.1123 196.9 73.1123C198.7 73.0123 200.3 73.2123 201.2 75.2123C201.3 76.0123 202.1 76.6123 202.8 77.4123Z" fill="black"/>
<path d="M134.7 216.012C133.3 216.012 132 215.612 131.3 217.112C130.1 215.612 130 214.512 131.2 213.312C132 212.512 132.5 211.412 133.6 210.712C134.5 210.112 134.8 208.712 135.6 207.812C136.2 207.112 137.1 206.712 137.9 206.212C138.1 206.412 138.4 206.712 138.8 207.112C138.4 207.412 137.9 207.712 137.5 208.012C137.5 208.112 137.6 208.212 137.6 208.312C138.2 208.212 138.8 208.112 139.5 208.012C139.7 208.312 139.9 209.012 140.4 209.212C143.2 210.612 145 213.112 146.6 215.512C147.2 216.312 147.3 217.412 147.8 218.312C148.9 220.512 149.2 220.912 148.9 223.012C148.7 224.512 148.4 226.012 147.2 227.212C146.7 227.712 146.3 228.312 146.2 229.012C146.1 230.512 145.3 230.812 144.1 230.712C143.8 230.712 143.4 230.712 143.1 230.812C141 231.412 140.7 231.312 139.7 229.712C138.1 227.312 137.4 224.512 136.4 221.812C135.7 219.912 135.2 217.912 134.7 216.012Z" fill="black"/>
<path d="M100 186.112C98.5 185.212 97 184.512 95.7 183.212C93.4 180.912 90.9 178.712 88.8 176.212C86.6 173.612 84.2 171.012 82.9 168.012C83 166.812 84.6 168.112 84.6 166.712C84.6 166.312 85.6 165.912 86.2 165.512C87.6 164.512 88.3 164.412 89.3 165.412C90.3 166.412 91.4 166.812 92.7 167.112C94.7 167.512 96.1 169.112 97.8 170.012C99.6 171.012 100.9 172.612 102.4 174.012C103.2 174.712 104.1 175.312 104.8 176.112C105.5 176.912 106.1 177.912 106.3 178.912C106.4 179.512 106 180.412 105.5 181.012C104.9 181.712 104.7 182.612 103.7 183.012C103.1 183.212 103.2 183.812 103.1 184.412C103 185.012 102.8 185.812 101.7 185.012C100.9 184.412 100.3 185.212 100 186.112Z" fill="black"/>
<path d="M209.8 170.312C206.7 169.012 205.4 166.612 204 164.312C202.8 162.312 201.8 160.112 200.9 158.012C200 155.812 198.5 153.812 199.2 151.012C201.2 152.412 201 155.012 202.9 156.712C202.6 153.912 201.1 151.812 200.4 148.912C201.4 149.412 201.8 149.612 202.2 149.912C202.3 149.412 202.4 148.912 202.5 148.412C203.3 148.212 204.1 148.112 205.1 147.912C205.4 148.312 205.7 148.912 206.1 149.512C207.6 151.712 207.7 151.712 210.5 152.712C210.8 152.812 211.1 153.012 211.4 153.212C213.6 154.612 215.5 156.112 216.7 158.512C217.1 159.412 217.7 161.012 217.7 161.912C217.7 162.112 217.9 162.412 218 162.612C218.4 163.112 218.2 163.512 217.8 163.712C216.6 164.412 216 165.812 215 166.612C214.5 166.912 214.5 167.412 214.4 168.012C214.3 168.812 212.8 169.812 212 169.612C211.6 169.512 211.3 168.712 210.7 169.312C210.3 169.612 210.1 170.012 209.8 170.312Z" fill="black"/>
<path d="M121.5 106.812C121 106.912 120.5 107.012 119.8 107.112C120.1 107.612 120.3 108.012 120.5 108.412C119.2 109.712 117.9 111.012 116.5 112.412C116.3 112.412 116 112.412 115.7 112.412C112.6 113.012 110.6 111.212 108.9 109.112C107.6 107.512 106.4 105.712 105.5 103.712C104.9 102.512 104.5 101.312 104.8 99.7123C105.7 101.712 106.6 103.612 107.4 105.412C107.5 105.412 107.7 105.312 107.8 105.312C107.7 105.012 107.7 104.612 107.6 104.312C107 103.012 106.4 101.712 105.9 100.412C105.7 99.8124 105.2 99.1124 106.4 98.8124C106.8 98.7124 107 97.9124 107.3 97.4124C107.6 97.0124 107.8 96.5124 108 96.2123C109.3 96.1124 109.3 97.2123 110.1 97.7123C109.9 97.0124 109.7 96.3124 109.5 95.4124C109.9 95.1124 110.5 94.6124 111 94.2123C111.3 94.5124 111.8 95.1124 112.2 94.1124C112.7 93.0124 113.3 92.6124 114.4 93.3124C114.5 93.4124 114.7 93.4124 114.8 93.4124C116.1 92.4124 116.8 93.4123 117.4 94.2123C118.8 96.1124 119.5 98.4124 120.3 100.612C120.5 101.112 120.9 102.312 119.5 102.412C119.4 102.412 119.4 102.912 119.3 103.112C119.6 103.212 120.1 103.412 120.2 103.312C121 102.512 121.5 103.512 121.4 103.712C121 104.512 122.1 105.612 121.5 106.812Z" fill="black"/>
<path d="M111.6 48.6124C111.9 48.9124 112.2 49.2124 112.7 49.7124C112.8 48.9124 112.9 48.3124 112.9 47.6124C114 47.4124 115.2 47.1124 116.4 46.9124C117.1 46.8124 117.9 46.8124 118.6 46.9124C119.1 47.0124 118.7 48.0124 119.7 48.1124C120.4 48.2124 120.9 49.3124 121.3 50.0124C121.7 50.6124 121.1 52.0124 122.5 51.9124C122.5 52.8124 122.6 53.7124 122.6 54.6124C122.6 54.7124 122.6 54.8124 122.6 54.9124C123.9 56.2124 125.3 57.6124 126.7 59.0124C127.1 59.0124 127.6 58.9124 128 59.0124C128.7 59.1124 129.4 59.8124 129.1 60.2124C128.3 61.1124 129.7 61.8124 129.2 62.5124C127.1 63.1124 126.4 63.2124 124.7 62.9124C125.1 63.8124 125.5 64.6124 126 65.7124C125.7 66.0124 125.4 66.6124 125 66.6124C122.8 66.6124 120.4 67.2124 118.4 65.6124C117.9 65.2124 117.2 64.8124 116.8 64.3124C115.8 63.1124 115 61.8124 114.1 60.5124C113.7 59.9124 113.3 59.2124 112.9 58.6124C112.3 57.6124 112.4 56.2124 111.3 55.5124C111.5 54.3124 110.8 53.4124 110.4 52.4124C109.7 50.7124 110.1 49.4124 111.6 48.6124Z" fill="black"/>
<path d="M74.2 108.712C74.2 108.412 74.1 108.112 74.2 107.712C74.3 107.512 74.6 107.312 74.7 107.112C74.7 106.912 74.5 106.612 74.5 106.312C74.5 106.112 74.8 105.812 74.8 105.612C74.7 105.312 74.4 105.012 74.2 104.812C74 104.712 73.7 104.712 73.4 104.612C73.6 105.212 73.7 105.712 73.8 106.112C72.8 105.512 71.8 105.012 72.2 103.612C72.6 103.812 73 103.912 73.5 104.112C73.7 102.412 72.1 103.312 71.5 102.512C72.4 102.612 73 102.012 73.9 102.112C74.3 102.212 74.9 101.312 75.5 100.712C76.4 101.412 77.4 102.212 78.5 103.212C78.6 102.512 78.7 102.012 78.8 101.412C80.1 101.112 81.5 100.912 82.8 100.612C83.5 101.512 84 102.312 84.7 103.012C85.3 103.612 86.1 104.012 86.6 104.612C88.2 106.312 88.9 108.612 89.5 110.712C89.7 111.512 90 112.712 88.5 112.912C88.5 114.312 87 114.512 86.3 115.512C85.4 116.612 83.9 116.812 82.3 116.212C79.9 115.212 78.2 113.312 76.7 111.412C75.8 110.712 74.9 109.812 74.2 108.712Z" fill="black"/>
<path d="M119.1 144.112C119.5 144.212 120 144.412 120.5 144.612C120.6 142.312 118.2 141.712 117.9 139.612C118.4 139.812 118.8 139.912 119.1 140.112C119.6 140.512 119.9 140.912 120.5 141.512C120.3 140.412 120.2 140.112 119.5 139.312C120.9 137.612 120.9 137.612 122.6 137.612C123.5 138.612 124.3 140.012 125.5 140.812C126.8 141.612 127.2 143.012 128.2 144.012C129.1 144.912 129.7 146.212 130.4 147.412C130.7 148.112 131 148.912 130.9 149.612C130.8 150.512 130.4 151.812 129.8 152.012C128.8 152.412 129 153.112 128.7 153.812C128.3 154.612 127.7 155.512 126.6 155.712C126 155.812 125.2 156.312 124.7 156.112C123.5 155.612 122.4 154.912 121.5 154.012C119.9 152.312 118.5 150.412 117.1 148.512C116.8 148.012 116.9 147.212 116.8 146.212C117.3 146.612 117.4 146.712 117.8 147.012C117.5 145.412 118.7 144.912 119.1 144.112Z" fill="black"/>
<path d="M104.8 244.112C104.1 243.712 103.7 243.512 103.3 243.312C102.7 245.512 102.5 245.612 100.7 244.812C101.2 245.912 101.6 246.812 102 247.812C101.5 248.112 101 248.412 100.6 248.612C99.7 247.712 98.7999 246.812 97.7999 245.812C97.1999 247.112 98.8 247.712 98.7 249.012C97.2 249.212 96.3999 248.212 95.5999 247.312C95.0999 246.812 94.8999 246.112 94.3999 245.612C92.2999 243.512 90.3999 241.212 88.5999 238.712C88.3999 238.512 88.1999 238.312 87.9999 238.112C86.8999 237.112 85.8 236.112 85.7 234.512C86.8 233.912 87.2999 234.912 87.9999 235.512C88.6999 234.312 86.9999 234.112 87.0999 233.212C87.2 232.112 89.2 233.512 88.7 231.712C89.8 231.712 90.7 231.712 91.7 231.712C92.5 232.312 93.3999 232.912 94.2 233.512C95 234.112 95.5999 235.012 96.5999 235.512C97.5999 236.012 98.2999 237.112 99.0999 237.912C99.7 238.412 99.9999 239.112 101 239.312C101.7 239.512 102 240.512 103 240.312C103.3 240.312 103.8 240.812 103.9 241.112C104.4 242.112 104.5 242.812 104.8 244.112Z" fill="black"/>
<path d="M86 61.7123C86.9 61.8123 87.6 61.3123 88.4 61.9123C88 62.1123 87.6 62.2123 87.3 62.3123C87.6 63.4123 88 64.5123 88.2 65.6123C88.3 65.9123 88.1 66.4123 87.9 66.5123C86.8 67.0123 86.5 68.1123 85.6 68.8123C85.2 69.1123 84.7 69.2123 84.2 69.2123C84 69.2123 83.7 68.9123 83.4 68.9123C83.1 68.9123 82.8 69.2123 82.5 69.4123C82 67.7123 82.1 67.7123 80.2 67.1123C79.1 66.7123 78.9 65.6123 78.1 65.0123C77.9 65.4123 77.8 65.7123 77.6 66.1123C77.3 65.8123 76.9 65.5123 76.9 65.3123C76.9 62.1123 76.9 62.0123 75.4 60.0123C74.6 61.5123 76.2 62.3123 76.3 63.8123C75.9 63.7123 75.3 63.8123 75.2 63.6123C74.5 61.9123 73.4 60.3123 74.5 58.3123C74.8 57.7123 74.9 57.3123 75.7 57.3123C76.2 57.3123 76.7 57.0123 77.1 56.8123C78.2 56.1123 79.2 55.4123 80.4 54.6123C80.7 55.0123 80.9 55.4123 80.8 55.3123C81.7 55.9123 82.7 54.2123 82.8 56.0123C82.8 56.5123 84 55.3123 84 56.6123C84 57.1123 84.9 57.6123 85.4 58.1123C85.2 58.5123 85.1 59.0123 84.9 59.4123C85 59.5123 85.2 59.6123 85.3 59.7123C85.5 59.2123 85.8 58.8123 86.1 58.2123C86.6 59.0123 86.9 59.5123 87.2 60.1123C86.9 60.5123 86.5 61.1123 86 61.7123Z" fill="black"/>
<path d="M54.8 176.112C55.2 177.012 55.5 177.712 55.9 178.612C56.2 177.912 56.3 177.612 56.4 177.312C56.5 177.412 56.7 177.412 56.7 177.512C56.9 178.412 57.4 179.212 58.1 179.912C58.5 180.312 58.8 180.912 59.1 181.412C59.6 182.312 60.3 183.012 61.4 183.212C61.6 182.812 61.8 182.512 61.8 182.312C62.3 182.712 62.9 183.112 63.3 183.412C63.3 183.712 63.3 183.912 63.3 183.912C62.8 184.212 62.3 184.512 61.8 184.812C61.9 185.512 62.1 186.212 62.2 187.212C61.4 186.812 60.9 186.612 60.3 186.312C59.9 187.012 59.6 187.712 59.2 188.512C58.8 188.512 58.4 188.612 57.9 188.712C57.9 189.112 57.9 189.612 57.9 189.912C56.5 190.912 55.4 190.812 54.2 189.712C52.9 188.512 51.4 187.512 50.1 186.112C50.7 185.712 51.2 185.412 51.8 185.012C51.5 183.912 51 182.912 50.2 182.012C49.4 181.012 49 179.812 48.4 178.712C49.2 177.712 49.8 178.412 50.6 178.812C50.6 178.512 50.8 178.212 50.7 178.012C50.2 176.812 50.4 176.212 51.5 176.112C52.6 176.112 53.7 176.112 54.8 176.112Z" fill="black"/>
<path d="M64.5999 137.912C65.2999 138.112 65.9999 138.312 66.8999 138.612C67.2999 137.712 67.3999 136.912 66.5999 136.112C67.5999 135.212 68.1999 136.512 69.0999 136.412C69.1999 135.912 69.2999 135.412 69.3999 134.912C70.0999 134.112 70.7999 135.612 71.6999 134.912C72.5999 134.212 72.7999 135.712 73.5999 135.912C73.9999 136.012 74.3999 136.412 74.6999 136.812C75.6999 138.112 75.8999 139.812 77.2999 140.912C77.5999 141.212 77.4999 142.112 77.4999 142.912C75.9999 142.112 75.8999 144.612 74.3999 144.012C73.8999 144.712 74.3999 146.112 72.6999 146.212C72.4999 145.912 72.2999 145.412 71.8999 144.812C71.5999 145.512 71.3999 145.812 71.1999 146.212C70.2999 146.412 69.7999 145.612 69.4999 145.112C68.4999 143.412 67.1999 142.112 65.4999 141.112C64.4999 140.412 63.8999 139.412 64.5999 137.912Z" fill="black"/>
<path d="M51.3 65.4123C50 66.4123 49.1 67.2123 47.8 68.1123C47.3 68.1123 46.4 68.1123 45.5 68.1123C44.6 66.8123 44.3 65.1123 43 64.0123C42.9 62.2123 41.6 61.1123 40.5 59.8123C40.2 59.4123 40.2 58.6123 40.1 57.9123C40.5 57.8123 40.9 57.8123 41.1 57.6123C43.2 55.6123 45.2 56.7123 46.8 58.1123C48.2 59.2123 49.4 60.7123 50.4 62.3123C51.1 63.2123 51.1 64.5123 51.3 65.4123Z" fill="black"/>
<path d="M-65.9 2.71237C-65.4 2.11237 -65 1.51237 -64.6 1.01237C-64.4 0.812372 -64.2 0.612372 -63.9 0.512372C-63.3 0.112372 -62.8 1.21237 -62.1 0.712372C-61.5 0.412372 -60.9 0.112372 -60.3 0.0123722C-59.7 0.0123722 -58.9 0.612372 -58.6 0.412372C-58 -0.0876278 -57.6 -0.187628 -57 0.412372C-56.9 0.512372 -56.5 0.412372 -56.3 0.412372C-54.6 0.0123722 -54.6 0.0123723 -53.7 1.71237C-53.6 1.31237 -53.5 1.01237 -53.3 0.412372C-53 1.11237 -52.8 1.71237 -52.6 2.21237C-52.5 2.91237 -52.4 3.61237 -52.4 4.31237C-52.4 5.01237 -52.4 5.71237 -52 6.41237C-51.9 5.51237 -51.8 4.71237 -51.7 3.81237C-51.6 3.81237 -51.5 3.81237 -51.4 3.81237C-51.3 4.31237 -51.3 4.71237 -51.3 5.21237C-51.3 7.61237 -51.4 9.91237 -51.3 12.3124C-51.2 14.4124 -51.5 16.2124 -52.7 18.0124C-53.1 17.6124 -53.6 16.9124 -54.1 18.0124C-54.6 19.1124 -55.5 19.0124 -56.7 18.5124C-56.9 19.7124 -57 21.1124 -59 20.7124C-59 19.8124 -59 18.7124 -59 17.7124C-59.1 17.7124 -59.3 17.6124 -59.4 17.6124C-59.7 18.6124 -60 19.7124 -60.4 20.7124C-61.3 20.1124 -62 19.5124 -61.9 18.2124C-61.9 17.8124 -62.3 17.5124 -62.4 17.1124C-63 15.4124 -63 15.4124 -64.4 15.3124C-64.7 15.3124 -64.9 15.3124 -65.2 15.3124C-65.5 15.3124 -65.7 15.3124 -65.9 15.3124C-66.6 14.6124 -67.2 13.9124 -67.9 13.3124C-69.3 12.0124 -69.8 10.3124 -70 8.51237C-69.9 7.51237 -69.7 6.61237 -69.9 5.71237C-70 4.71237 -69.5 4.01237 -69.1 3.31237C-68.2 1.91237 -67.7 1.91237 -65.9 2.71237Z" fill="black"/>
<path d="M-66.1 90.6125C-68.3 90.1125 -69 88.6125 -69.2 87.3125C-69.5 85.6125 -70 83.9125 -69.9 82.1125C-69.7 79.8125 -69.7 77.4125 -69.9 75.0125C-70 73.9125 -69.3 73.0125 -69.3 72.0125C-69.3 71.7125 -68.9 71.2125 -68.7 71.2125C-67.3 71.3125 -66.6 69.8125 -65.2 69.8125C-64.2 69.8125 -63.3 68.9125 -62.2 68.3125C-61.1 69.4125 -58.8 68.0125 -58 70.4125C-58.6 72.1125 -57.1 73.5125 -56.7 75.2125C-56.6 75.4125 -56.4 75.7125 -56.4 75.9125C-56.4 78.6125 -56.4 81.3125 -56.4 84.2125C-56.8 83.8125 -57 83.6125 -57.5 83.2125C-57.4 83.8125 -57.4 84.3125 -57.2 84.5125C-57 84.7125 -56.5 84.5125 -56.2 84.6125C-56.1 84.6125 -56 85.0125 -56 85.3125C-56 85.4125 -56.2 85.7125 -56.3 85.6125C-57 85.5125 -57.6 85.3125 -58.3 85.1125C-58.8 86.2125 -59.3 87.3125 -59.7 88.1125C-60.2 88.1125 -60.6 88.0125 -61 88.0125C-60.2 88.8125 -61.1 89.1125 -61.4 89.5125C-61.7 90.0125 -62 90.5125 -62.2 91.0125C-63.9 90.8125 -64.6 89.7125 -65 88.2125C-65.5 89.1125 -65.7 89.8125 -66.1 90.6125Z" fill="black"/>
</svg>
