<svg width="157" height="140" viewBox="0 0 157 140" fill="none" xmlns="http://www.w3.org/2000/svg">
<path d="M65.6201 81.8036C65.8585 81.3269 66.2558 80.9295 66.4147 80.4527C66.971 78.7045 68.4809 78.0687 69.9907 77.6714C71.0238 77.3535 72.0569 77.0357 73.2489 77.1151C75.8713 77.2741 77.7785 78.5455 79.0499 80.7706C79.6856 81.8037 80.2419 82.8367 80.4803 84.0287C80.6392 84.8234 80.8776 85.777 80.6392 86.4922C79.7651 89.353 78.1758 91.6575 75.2355 92.77C74.4409 93.0879 73.5667 93.3263 72.7721 93.5647C72.6131 93.6441 72.4542 93.6441 72.3747 93.5647C70.2291 92.5316 68.163 91.3396 66.971 89.2735C66.4147 88.3994 65.938 87.3663 66.0969 86.1743C66.2558 84.8234 65.6996 83.393 66.4942 82.0421C66.1764 82.0421 65.938 81.9626 65.6201 81.8036ZM69.9113 88.3994C71.0238 88.3994 71.9774 88.5583 72.8515 88.3994C74.4409 88.002 76.5865 84.7439 76.507 83.0751C76.507 82.8367 76.4275 82.4394 76.2686 82.3599C75.4739 81.8831 74.5998 81.4858 73.8051 81.0885C73.3283 81.9626 71.8185 81.009 71.5801 82.3599C71.5006 82.9162 70.1497 82.5983 70.547 83.6314C69.5139 85.1412 70.1497 86.81 69.9113 88.3994Z" fill="black"/>
<path d="M2.36478 107.313C1.64958 107.154 1.25224 106.836 1.49064 106.041C1.57011 105.962 1.80851 105.962 1.96744 105.803C3.39784 104.77 5.06663 104.611 6.65596 104.134C7.37116 103.896 8.40423 104.134 9.03996 104.531C10.8677 105.882 12.8543 107.074 13.649 109.458C14.3642 111.445 14.0463 113.908 12.8543 115.498C12.1391 116.451 11.1061 117.007 10.3909 117.961C9.19889 117.802 7.92743 118.279 6.65596 117.564C6.0997 117.246 3.63624 115.895 3.15944 115.577C2.04691 114.703 1.57011 113.511 1.17278 112.319C1.09331 112.081 0.934379 111.763 1.01385 111.524C1.57011 110.094 1.17278 108.505 2.36478 107.313Z" fill="black"/>
<path d="M113.697 64.0828C114.095 64.2418 114.333 64.3212 114.651 64.4007C114.412 65.1159 114.254 65.7516 114.015 66.3874C113.697 66.3874 113.3 66.4668 112.823 66.5463C112.982 66.7847 113.062 66.8642 113.22 67.1026C112.505 67.9767 111.631 68.6919 110.36 68.6124C110.042 68.6124 109.724 68.6919 109.406 68.8508C108.532 69.1687 107.658 69.1687 106.784 68.7714C106.466 68.6124 105.91 68.4535 105.83 68.6124C105.035 69.6455 104.32 68.2946 103.526 68.533C103.208 68.6124 102.89 67.7383 102.175 67.7383C101.777 67.7383 101.459 67.182 101.062 66.9436C100.585 66.7052 100.426 65.99 99.7112 66.0695C99.3933 65.0364 98.2808 64.4802 97.804 63.606C96.612 61.6194 96.612 58.7586 97.5656 56.8514C98.4397 55.1826 100.108 54.6263 101.539 55.8183C102.254 56.3746 102.81 56.7719 103.684 56.1362C104.002 56.613 104.241 56.3746 104.479 56.0567C104.797 55.5005 105.353 55.5005 105.83 55.5799C107.578 55.9772 109.247 56.4541 110.678 57.4871C111.87 58.3612 112.744 59.7916 113.777 60.9042C113.538 61.9372 114.889 62.8908 113.697 64.0828ZM100.188 62.6524C101.936 64.3212 104.797 65.1954 107.181 65.1159C108.294 65.0364 109.168 64.6391 109.883 63.9239C110.28 63.4471 110.757 63.0498 111.234 62.573C110.995 62.2551 110.757 62.0167 110.678 61.7783C110.36 60.6658 109.724 59.9506 108.452 59.8711C107.896 59.7916 107.34 59.4738 106.784 59.3148C106.386 59.2354 105.751 58.997 105.671 59.1559C105.115 59.9506 104.876 58.6791 104.161 59.3148C103.764 59.7122 103.128 60.2684 102.413 60.9042C101.857 60.5068 101.459 60.189 101.062 59.8711C99.7906 60.5068 100.506 61.6194 100.188 62.6524Z" fill="black"/>
<path d="M129.432 113.352C130.067 113.034 130.783 112.478 131.895 112.875C131.816 113.034 131.657 113.193 131.498 113.431C131.895 113.511 132.61 113.59 132.69 113.749C133.008 115.1 134.517 115.418 134.994 116.689C135.789 118.755 136.425 120.822 135.312 123.047C135.153 123.285 135.074 123.364 135.233 123.682C135.709 124.636 135.233 125.272 134.438 125.748C133.802 126.066 134.2 126.384 134.517 126.782C133.802 127.735 133.008 128.689 132.292 129.642C131.498 129.642 130.783 129.642 129.908 129.642C129.432 129.166 128.955 128.609 128.399 128.053C127.922 127.497 127.286 127.179 126.889 126.543C125.935 125.113 125.697 123.603 126.094 122.014C126.332 120.822 126.968 119.63 127.286 118.438C127.445 117.643 127.683 117.007 128.478 116.53C128.796 116.371 129.034 115.736 129.034 115.259C129.034 114.623 129.432 114.385 129.749 113.987C129.67 113.908 129.511 113.59 129.432 113.352Z" fill="black"/>
<path d="M147.391 52.9574C147.073 53.4342 146.755 53.8315 146.517 54.3083C146.358 54.1494 146.12 53.8315 146.04 53.8315C144.53 54.0699 143.974 52.5601 142.941 52.0038C142.861 51.9243 142.782 51.527 142.782 51.4475C143.895 50.4939 142.702 49.8582 142.544 49.0635C142.385 49.2225 142.226 49.3814 142.067 49.4609C141.987 49.3814 141.908 49.3814 141.908 49.3019C141.987 48.3483 141.431 47.3153 142.385 46.5206C142.623 46.3617 142.544 45.8849 142.702 45.567C143.1 44.8518 143.259 43.8982 143.974 43.4214C144.769 42.9446 144.451 41.991 145.245 41.4347C146.517 40.4812 148.583 40.0044 150.093 40.5606C152.318 41.3553 153.748 43.1035 154.543 45.0902C155.179 46.759 155.497 48.5867 155.179 50.4145C155.02 51.4475 154.066 52.1627 153.272 52.7985C153.033 52.9574 152.397 52.719 151.841 52.6395C151.841 52.7985 151.921 53.1163 152 53.3547C152.238 53.6726 152.318 54.0699 151.841 54.1494C151.364 54.3083 151.205 53.9904 151.285 53.5136C151.285 53.4342 151.126 53.3547 150.888 53.1958C150.57 53.5136 150.172 53.7521 149.775 54.1494C149.696 53.911 149.616 53.6726 149.537 53.1958C148.98 53.752 148.424 54.2289 147.709 54.8646C147.629 54.1494 147.55 53.5931 147.391 52.9574ZM151.444 45.3286C151.364 45.2491 151.205 45.1697 151.126 45.0107C150.808 44.1366 149.854 44.2955 149.139 44.0571C148.821 43.8982 148.186 44.5339 147.629 44.7723C147.391 44.9313 146.994 45.6465 146.676 46.1233C146.437 46.5206 146.199 47.1563 145.881 47.2358C145.166 47.3153 145.325 47.7126 145.245 48.1099C145.166 48.4278 145.007 48.6662 144.928 48.9046C146.437 50.4145 147.868 49.7787 149.457 49.0635C151.205 48.2689 151.523 46.9179 151.444 45.3286Z" fill="black"/>
<path d="M38.2041 75.2875C38.6015 75.6053 38.7604 75.7643 38.9193 75.9232C39.0783 75.6848 39.1577 75.1285 39.3167 75.1285C39.7935 75.0491 40.4292 74.9696 40.7471 75.208C41.7801 75.9232 42.8132 76.7179 43.6079 77.6715C44.3231 78.6251 44.7999 79.7376 45.1177 80.9296C45.2766 81.5653 45.1972 82.36 44.7999 83.1546C44.0052 84.8234 43.2105 86.2538 41.5417 87.2074C40.8265 87.6048 39.9524 87.6842 39.3167 88.0816C39.0783 88.2405 38.6809 88.32 38.3631 88.4789C38.2836 88.2405 38.1247 88.0021 37.9657 87.7637C37.7273 88.0816 37.5684 88.0816 37.1711 87.8432C36.5353 87.3664 35.1844 86.1744 34.6281 85.6976C32.8004 84.1877 33.8335 82.36 33.9129 80.6912C33.9129 80.2939 34.6281 79.8965 35.0255 79.4197C36.5353 80.2144 37.2505 81.4858 37.8068 82.9162C39.2372 82.7573 39.4756 81.4064 40.2703 80.6117C40.4292 80.4528 40.3497 79.976 40.3497 79.2608C39.6345 79.976 39.1577 80.4528 38.7604 80.8501C37.6479 80.7707 37.8068 79.4197 36.8532 79.3403C36.8532 78.4661 36.6943 77.592 36.8532 76.7973C37.1711 76.1616 37.7273 75.8437 38.2041 75.2875Z" fill="black"/>
<path d="M121.008 18.9457C121.644 18.3099 122.121 17.8331 122.597 17.3563C123.472 17.3563 124.346 17.3563 125.299 17.3563C125.617 16.1643 124.743 16.6411 124.187 16.4822C124.266 16.3233 124.266 16.1643 124.346 16.0849C125.061 15.5286 124.028 15.2902 124.107 14.6545C124.584 13.5419 125.856 13.383 126.809 12.7473C127.048 12.5883 127.604 12.6678 127.922 12.8267C129.67 13.5419 130.306 15.1313 131.021 16.7206C131.498 17.7537 131.021 18.9457 131.816 19.8198C131.498 21.0118 131.339 22.2833 130.783 23.3163C130.147 24.4288 128.875 24.9851 127.683 25.144C127.048 25.2235 126.412 26.0182 125.776 25.4619C125.22 25.0646 124.425 25.303 123.948 24.5878C123.551 24.111 122.756 24.0315 122.597 23.2368C122.518 22.8395 121.723 22.76 121.326 22.1243C120.849 21.0118 121.326 19.9787 121.008 18.9457Z" fill="black"/>
<path d="M111.472 88.2404C111.234 87.7636 110.916 87.2074 110.678 86.7306C110.916 85.4591 112.426 85.777 112.903 84.8234C113.379 83.8698 114.81 84.2671 115.604 83.2341C115.287 82.9957 114.969 82.8367 114.73 82.5983C114.81 82.5189 114.81 82.3599 114.889 82.3599C116.32 82.1215 117.432 82.8367 118.386 83.7903C119.18 84.5055 119.657 85.5386 120.293 86.4127C120.611 86.8895 120.055 87.3663 120.531 87.6842C121.008 88.002 121.167 88.3994 121.088 88.9556C121.008 89.5119 121.564 90.1476 121.485 90.4655C121.247 91.1807 121.247 91.9754 121.008 92.6111C120.531 93.8826 119.896 95.0746 118.863 96.0282C118.306 96.5844 117.432 96.7434 116.399 96.5844C113.936 96.1871 113.856 96.1871 112.744 94.9156C111.87 93.962 111.313 92.8495 111.075 91.4986C110.916 90.7039 110.519 90.0682 110.995 89.2735C110.28 88.7967 111.393 88.7967 111.472 88.2404ZM113.459 86.81C113.697 87.9226 113.936 88.7967 114.174 89.6708C114.254 89.9092 114.254 90.2271 114.174 90.3066C113.22 91.1807 114.095 91.8959 114.333 92.6906C116.002 92.6906 115.922 92.6111 116.796 91.4191C117.829 89.9887 117.671 88.3994 117.591 86.81C117.591 86.4922 117.273 86.1743 117.035 85.9359C116.558 85.5386 115.763 86.1743 115.287 85.4591C115.128 85.6975 114.969 85.9359 114.81 86.1743C114.015 85.6975 113.856 86.5716 113.459 86.81Z" fill="black"/>
<path d="M53.3823 29.4353C55.3689 30.5478 55.8457 31.5014 54.7332 33.1702C54.1769 34.0444 54.8921 34.998 54.0975 35.7132C54.018 35.7926 54.2564 36.4283 54.4153 36.7462C54.7332 37.6998 55.0511 37.7793 56.1636 37.5409C58.2297 36.9846 59.1833 35.5542 59.6601 33.5676C58.8654 33.3292 58.1502 33.1702 57.3556 32.9318C56.402 32.614 56.7993 31.5809 56.402 31.1041C56.8788 30.6273 57.3556 30.1505 57.8324 29.6737C59.1833 28.9585 59.978 30.3889 61.17 30.7068C62.0441 32.1372 63.3156 33.4086 63.1566 35.3158C62.9977 37.6998 61.9646 39.7659 59.3422 40.7195C57.1172 41.5142 55.3689 41.1963 53.5412 39.5275C52.4287 38.4945 51.4751 37.4614 51.3956 35.6337C51.1572 33.3292 51.634 31.1836 53.3823 29.4353Z" fill="black"/>
<path d="M50.283 118.279C48.3758 118.835 47.3428 117.564 46.0713 116.769C44.8793 116.054 44.7999 114.703 44.4025 113.59C44.0847 112.557 44.7204 111.445 45.1177 110.491C45.4356 109.617 45.9919 108.902 46.3892 108.107C46.2303 108.028 45.9124 107.948 45.674 107.869C45.9919 107.551 46.3097 107.233 46.6276 106.836C46.1508 106.756 45.7535 106.677 45.1177 106.597C45.5151 106.279 45.8329 105.882 46.0713 105.882C46.7865 105.961 47.5812 105.644 48.3758 106.12C50.3625 107.233 51.3956 109.061 52.1902 111.047C53.1438 113.749 52.5876 116.213 50.283 118.279Z" fill="black"/>
<path d="M74.3614 128.609C74.123 129.007 73.964 129.404 73.8051 129.801C75.2355 131.232 75.7918 133.06 75.5534 135.046C75.4739 135.523 75.4739 135.92 75.156 136.397C74.4408 137.271 74.3614 138.543 73.0104 138.94C72.4542 139.099 71.8184 139.337 71.4211 139.099C70.3086 138.543 69.1166 138.145 68.4014 137.033C68.0835 136.477 67.7657 135.92 67.6862 135.205C67.4478 132.821 68.4014 130.835 69.6729 128.848C69.9112 128.451 70.388 128.133 70.9443 127.894C71.58 127.576 71.9774 127.338 72.6131 127.815C73.1694 128.133 73.7256 128.292 74.3614 128.609Z" fill="black"/>
<path d="M152.556 78.9429C151.682 78.3072 151.205 77.1152 149.855 77.1152C149.537 76.5589 148.98 76.0027 148.901 75.3669C148.663 73.8571 148.98 72.5061 150.57 71.7909C150.729 71.7115 150.888 71.4731 151.047 71.3141C150.808 71.2347 150.57 71.1552 150.49 71.1552C150.888 70.7579 151.364 70.2811 151.762 69.8837C151.682 69.8043 151.523 69.6453 151.444 69.5659C151.603 69.5659 151.841 69.4864 152 69.4864C152.874 69.6453 153.907 69.0096 154.622 69.9632C155.576 71.1552 156.291 72.3472 156.609 73.8571C157.006 75.8437 155.02 78.0688 153.589 78.784C153.192 78.9429 152.715 78.2277 152.556 78.9429Z" fill="black"/>
<path d="M95.1021 105.326C95.1021 105.962 95.1021 106.2 95.1021 106.518C95.3405 108.028 94.069 108.505 93.2744 109.14C92.4002 109.776 91.6056 108.822 90.8109 108.584C90.0957 108.346 89.46 107.63 88.8242 107.074C87.7912 106.121 87.3938 103.975 88.0296 102.703C88.1885 102.386 88.0296 101.909 88.7448 101.829C89.1421 101.829 89.5394 101.114 89.9368 100.717C90.8109 99.6043 91.6056 99.4453 92.5592 100.478C93.1949 101.114 93.9101 101.67 94.3074 102.545C94.7842 103.498 95.3405 104.452 95.1021 105.326Z" fill="black"/>
<path d="M71.5006 55.9771C72.4542 57.0101 73.4873 57.8843 73.9641 59.2352C74.5998 60.9834 74.2025 61.937 72.7721 62.9701C71.1033 64.1621 69.9113 63.9237 68.4809 62.4138C68.2425 62.1754 68.0836 62.0165 67.9246 61.8576C67.6862 61.0629 68.2425 60.1888 67.4478 59.6325C66.971 57.6459 68.322 55.9771 70.4676 55.9771C70.7059 55.9771 71.1033 55.9771 71.5006 55.9771Z" fill="black"/>
<path d="M91.6056 33.7265C92.0029 33.4086 92.2413 33.2497 92.4797 33.0113C92.1619 32.7729 91.9235 32.5345 91.6851 32.2961C91.7645 32.1371 91.9235 32.0577 92.0824 31.8193C91.6056 31.7398 91.1288 31.5809 90.652 31.5014C91.2877 29.8326 92.7976 29.7531 93.9896 29.1969C94.228 29.1174 94.7048 29.4353 95.0227 29.5942C96.2147 30.5478 97.0093 31.6603 97.6451 33.0113C97.7245 33.1702 97.804 33.4881 97.7245 33.5675C96.6915 34.4417 98.0424 36.1105 96.6915 36.7462C96.4531 36.8257 95.8173 36.1899 95.1021 36.1105C95.42 36.4283 95.6584 36.7462 95.9763 37.064C95.42 37.3819 94.9432 37.7793 94.3869 38.0971C94.228 38.1766 93.9896 38.0971 93.7512 38.0971C93.5923 38.0971 93.3539 38.0176 93.4333 37.9382C93.5923 36.7462 92.1619 37.6203 92.0029 36.8256C91.9235 36.4283 91.6056 36.1105 91.6056 35.7131C91.6056 35.1569 91.6056 34.4417 91.6056 33.7265Z" fill="black"/>
<path d="M94.7048 1.93993C94.7048 1.46313 94.7048 1.22473 94.7048 0.986328C95.3405 0.986328 95.9762 0.986328 96.612 0.986328C97.5656 2.41672 98.9165 3.84712 98.4397 6.07218C98.1218 6.07218 97.7245 6.15165 97.1682 6.15165C97.1682 5.51592 97.1682 4.95965 97.1682 4.40339C96.8504 4.48285 96.5325 4.40339 96.453 4.56232C96.2941 4.72125 96.2941 5.03912 96.1352 5.27752C95.8968 5.67485 95.7378 5.59538 95.3405 5.03912C95.1021 4.64178 94.7842 4.32392 94.3869 3.92659C94.8637 3.68819 95.1021 3.60872 95.42 3.44979C94.5458 2.97299 94.5458 3.05246 95.261 2.25779C95.42 2.09886 95.3405 1.78099 95.3405 1.38366C95.1816 1.54259 95.0226 1.62206 94.7048 1.93993Z" fill="black"/>
</svg>
