<svg width="83" height="15" viewBox="0 0 83 15" fill="none" xmlns="http://www.w3.org/2000/svg">
<path d="M5.27827 14.4193C4.30293 14.4193 3.4226 14.2293 2.63727 13.8493C1.85193 13.4567 1.22493 12.8677 0.756266 12.0823C0.300266 11.297 0.0722656 10.3027 0.0722656 9.09933V0.89133H2.50427V9.11833C2.50427 10.157 2.75127 10.9297 3.24527 11.4363C3.75193 11.943 4.4486 12.1963 5.33527 12.1963C6.20927 12.1963 6.8996 11.943 7.40627 11.4363C7.91293 10.9297 8.16627 10.157 8.16627 9.11833V0.89133H10.5983V9.09933C10.5983 10.3027 10.3576 11.297 9.87627 12.0823C9.39493 12.8677 8.74893 13.4567 7.93827 13.8493C7.14027 14.2293 6.2536 14.4193 5.27827 14.4193Z" fill="black"/>
<path d="M18.4009 14.1913V0.89133H23.3219C24.3859 0.89133 25.2662 1.06866 25.9629 1.42333C26.6596 1.778 27.1789 2.26566 27.5209 2.88633C27.8629 3.507 28.0339 4.20366 28.0339 4.97633C28.0339 5.711 27.8692 6.38866 27.5399 7.00933C27.2106 7.61733 26.6976 8.11133 26.0009 8.49133C25.3042 8.85866 24.4112 9.04233 23.3219 9.04233H20.8329V14.1913H18.4009ZM20.8329 7.06633H23.1699C24.0186 7.06633 24.6266 6.88266 24.9939 6.51533C25.3739 6.13533 25.5639 5.62233 25.5639 4.97633C25.5639 4.31766 25.3739 3.80466 24.9939 3.43733C24.6266 3.05733 24.0186 2.86733 23.1699 2.86733H20.8329V7.06633Z" fill="black"/>
<path d="M35.2619 14.1913V0.89133H40.6009C41.9816 0.89133 43.0329 1.21433 43.7549 1.86033C44.4896 2.49366 44.8569 3.31066 44.8569 4.31133C44.8569 5.14733 44.6289 5.81866 44.1729 6.32533C43.7296 6.81933 43.1849 7.155 42.5389 7.33233C43.2989 7.48433 43.9259 7.86433 44.4199 8.47233C44.9139 9.06766 45.1609 9.76433 45.1609 10.5623C45.1609 11.6137 44.7809 12.4813 44.0209 13.1653C43.2609 13.8493 42.1842 14.1913 40.7909 14.1913H35.2619ZM37.6939 6.47733H40.2399C40.9239 6.47733 41.4496 6.319 41.8169 6.00233C42.1842 5.68566 42.3679 5.236 42.3679 4.65333C42.3679 4.096 42.1842 3.659 41.8169 3.34233C41.4622 3.013 40.9239 2.84833 40.2019 2.84833H37.6939V6.47733ZM37.6939 12.2153H40.4109C41.1329 12.2153 41.6902 12.0507 42.0829 11.7213C42.4882 11.3793 42.6909 10.9043 42.6909 10.2963C42.6909 9.67566 42.4819 9.188 42.0639 8.83333C41.6459 8.47866 41.0822 8.30133 40.3729 8.30133H37.6939V12.2153Z" fill="black"/>
<path d="M58.8002 14.4193C57.4702 14.4193 56.3049 14.128 55.3042 13.5453C54.3162 12.9627 53.5372 12.1583 52.9672 11.1323C52.4099 10.0937 52.1312 8.89666 52.1312 7.54133C52.1312 6.186 52.4099 4.99533 52.9672 3.96933C53.5372 2.93066 54.3162 2.12 55.3042 1.53733C56.3049 0.954663 57.4702 0.66333 58.8002 0.66333C60.1176 0.66333 61.2766 0.954663 62.2772 1.53733C63.2779 2.12 64.0569 2.93066 64.6142 3.96933C65.1716 4.99533 65.4502 6.186 65.4502 7.54133C65.4502 8.89666 65.1716 10.0937 64.6142 11.1323C64.0569 12.1583 63.2779 12.9627 62.2772 13.5453C61.2766 14.128 60.1176 14.4193 58.8002 14.4193ZM58.8002 12.2343C60.0669 12.2343 61.0739 11.8163 61.8212 10.9803C62.5812 10.1443 62.9612 8.998 62.9612 7.54133C62.9612 6.08466 62.5812 4.93833 61.8212 4.10233C61.0739 3.26633 60.0669 2.84833 58.8002 2.84833C57.5336 2.84833 56.5202 3.26633 55.7602 4.10233C55.0002 4.93833 54.6202 6.08466 54.6202 7.54133C54.6202 8.998 55.0002 10.1443 55.7602 10.9803C56.5202 11.8163 57.5336 12.2343 58.8002 12.2343Z" fill="black"/>
<path d="M71.3067 14.1913L75.4677 7.46533L71.2497 0.89133H74.0427L77.0257 5.52733L79.7617 0.89133H82.4977L78.3367 7.57933L82.5927 14.1913H79.7997L76.7787 9.49833L74.0427 14.1913H71.3067Z" fill="black"/>
</svg>
